<svg xmlns="http://www.w3.org/2000/svg" xmlns:xlink="http://www.w3.org/1999/xlink" width="384" height="140" viewBox="0 0 384 140">
  <title>bon logo</title>
  <defs>
    <filter id="a" width="137.3%" height="137.3%" x="-18.7%" y="-13.3%" filterUnits="objectBoundingBox">
      <feOffset dy="4" in="SourceAlpha" result="shadowOffsetOuter1"/>
      <feGaussianBlur in="shadowOffsetOuter1" result="shadowBlurOuter1" stdDeviation="4"/>
      <feColorMatrix in="shadowBlurOuter1" values="0 0 0 0 0 0 0 0 0 0 0 0 0 0 0 0 0 0 0.25 0"/>
    </filter>
    <filter id="c" width="137.3%" height="137.3%" x="-18.7%" y="-13.3%" filterUnits="objectBoundingBox">
      <feOffset dy="4" in="SourceAlpha" result="shadowOffsetOuter1"/>
      <feGaussianBlur in="shadowOffsetOuter1" result="shadowBlurOuter1" stdDeviation="4"/>
      <feColorMatrix in="shadowBlurOuter1" values="0 0 0 0 0 0 0 0 0 0 0 0 0 0 0 0 0 0 0.25 0"/>
    </filter>
    <filter id="f" width="137.3%" height="137.3%" x="-18.7%" y="-13.3%" filterUnits="objectBoundingBox">
      <feOffset dy="4" in="SourceAlpha" result="shadowOffsetOuter1"/>
      <feGaussianBlur in="shadowOffsetOuter1" result="shadowBlurOuter1" stdDeviation="4"/>
      <feColorMatrix in="shadowBlurOuter1" values="0 0 0 0 0 0 0 0 0 0 0 0 0 0 0 0 0 0 0.25 0"/>
    </filter>
    <filter id="i" width="137.3%" height="137.3%" x="-18.7%" y="-13.3%" filterUnits="objectBoundingBox">
      <feOffset dy="4" in="SourceAlpha" result="shadowOffsetOuter1"/>
      <feGaussianBlur in="shadowOffsetOuter1" result="shadowBlurOuter1" stdDeviation="4"/>
      <feColorMatrix in="shadowBlurOuter1" values="0 0 0 0 0 0 0 0 0 0 0 0 0 0 0 0 0 0 0.25 0"/>
    </filter>
    <circle id="b" cx="37.5" cy="37.5" r="37.5"/>
    <circle id="d" cx="101.5" cy="37.5" r="37.5"/>
    <circle id="g" cx="163.5" cy="37.5" r="37.5"/>
    <circle id="j" cx="227.5" cy="37.5" r="37.5"/>
    <radialGradient id="e" cx="50%" cy="50%" r="44.358%" fx="50%" fy="50%">
      <stop offset="0%" stop-color="#2AAAD7"/>
      <stop offset="100%" stop-color="#11B1DF"/>
    </radialGradient>
    <radialGradient id="h" cx="50%" cy="50%" r="44.358%" fx="50%" fy="50%">
      <stop offset="0%" stop-color="#0A81B6"/>
      <stop offset="100%" stop-color="#1077AD"/>
    </radialGradient>
  </defs>
  <g fill="none" fill-rule="evenodd">
    <g transform="translate(111 4)">
      <use xlink:href="#b" fill="#000" filter="url(#a)"/>
      <use xlink:href="#b" fill="#A3DDF1"/>
    </g>
    <g transform="translate(111 4)">
      <use xlink:href="#d" fill="#000" filter="url(#c)"/>
      <use xlink:href="#d" fill="url(#e)"/>
    </g>
    <g transform="translate(111 4)">
      <use xlink:href="#g" fill="#000" filter="url(#f)"/>
      <use xlink:href="#g" fill="url(#h)"/>
    </g>
    <g transform="translate(111 4)">
      <use xlink:href="#j" fill="#000" filter="url(#i)"/>
      <use xlink:href="#j" fill="#08598E"/>
    </g>
    <g fill-rule="nonzero">
      <path fill="#0D7CB1" d="M 0.04 126 L 2.52 120.92 Q 3.6 121.68 5.08 122.18 Q 6.56 122.68 8.08 122.68 Q 10.44 122.68 11.56 121.5 Q 12.68 120.32 12.68 117.96 L 12.68 97.76 L 19.8 97.76 L 19.8 117.28 Q 19.8 120.72 18.78 123.3 Q 17.76 125.88 15.44 127.3 Q 13.12 128.72 9.2 128.72 Q 6.4 128.72 4.06 127.98 Q 1.72 127.24 0.04 126 Z M 25.12 128 L 25.12 97.76 L 45.56 97.76 L 45.56 103.6 L 32.24 103.6 L 32.24 109.72 L 44.92 109.72 L 44.92 115.56 L 32.24 115.56 L 32.24 122.16 L 45.64 122.16 L 45.64 128 Z M 49.88 97.76 L 57 97.76 L 57 116.24 Q 57 122.44 61.96 122.44 Q 66.96 122.44 66.96 116.24 L 66.96 97.76 L 74.08 97.76 L 74.08 116.04 Q 74.08 128.72 61.96 128.72 Q 56 128.72 52.94 125.56 Q 49.88 122.4 49.88 116.04 Z M 79.32 128 L 79.32 97.76 L 86.04 97.76 L 97.04 116.16 L 97.04 97.76 L 104.04 97.76 L 104.04 128 L 97.36 128 L 86.32 109.56 L 86.32 128 Z M 109.8 128 L 109.8 97.76 L 130.24 97.76 L 130.24 103.6 L 116.92 103.6 L 116.92 109.72 L 129.6 109.72 L 129.6 115.56 L 116.92 115.56 L 116.92 122.16 L 130.32 122.16 L 130.32 128 Z M 144.36 128.72 Q 140.84 128.72 138.08 127.72 Q 135.32 126.72 133 124.84 L 135.8 119.76 Q 137.4 121.08 139.52 121.94 Q 141.64 122.8 144.16 122.8 Q 146.64 122.8 147.82 121.98 Q 149 121.16 149 119.64 Q 149 118.16 148.02 117.4 Q 147.04 116.64 145.32 116.16 L 142.52 115.36 Q 139.88 114.64 137.98 113.56 Q 136.08 112.48 135 110.8 Q 133.92 109.12 133.8 106.56 Q 133.64 103.64 135.08 101.5 Q 136.52 99.36 139.12 98.2 Q 141.72 97.04 145.2 97.04 Q 148.52 97.04 150.96 98.04 Q 153.4 99.04 155.24 100.44 L 152.32 105.16 Q 150.92 104.24 149.22 103.6 Q 147.52 102.96 145.4 102.96 Q 143.08 102.96 142.04 103.72 Q 141 104.48 141 105.76 Q 141 106.88 141.84 107.5 Q 142.68 108.12 144.68 108.72 L 148.2 109.76 Q 150.44 110.44 152.26 111.6 Q 154.08 112.76 155.14 114.62 Q 156.2 116.48 156.2 119.2 Q 156.2 122.4 154.7 124.52 Q 153.2 126.64 150.54 127.68 Q 147.88 128.72 144.36 128.72 Z"/>
      <path fill="#08598E" d="M 168.64 128 L 168.64 97.76 L 176.28 97.76 L 183.64 112.2 L 191 97.76 L 198.48 97.76 L 198.48 128 L 191.44 128 L 191.44 108.88 L 185.48 120.48 L 181.64 120.48 L 175.68 108.8 L 175.68 128 Z M 204.24 128 L 204.24 97.76 L 224.68 97.76 L 224.68 103.6 L 211.36 103.6 L 211.36 109.72 L 224.04 109.72 L 224.04 115.56 L 211.36 115.56 L 211.36 122.16 L 224.76 122.16 L 224.76 128 Z M 216.04 94.64 L 211 94.64 L 216.44 87.68 L 224.04 87.68 Z M 229.52 128 L 229.52 97.76 L 240.52 97.76 Q 247.52 97.76 251.06 101.64 Q 254.6 105.52 254.6 112.88 Q 254.6 120.24 251.06 124.12 Q 247.52 128 240.52 128 Z M 236.64 122.08 L 240.32 122.08 Q 243.92 122.08 245.6 119.88 Q 247.28 117.68 247.28 112.88 Q 247.28 108.08 245.6 105.88 Q 243.92 103.68 240.32 103.68 L 236.64 103.68 Z M 258.8 128 L 258.8 97.76 L 279.24 97.76 L 279.24 103.6 L 265.92 103.6 L 265.92 109.72 L 278.6 109.72 L 278.6 115.56 L 265.92 115.56 L 265.92 122.16 L 279.32 122.16 L 279.32 128 Z M 296.2 128.72 Q 289.28 128.72 285.96 124.5 Q 282.64 120.28 282.64 112.88 Q 282.64 105.36 286 101.2 Q 289.36 97.04 296.12 97.04 Q 299 97.04 301.42 97.88 Q 303.84 98.72 306 100.56 L 302.92 105.16 Q 301.48 104.08 300.06 103.56 Q 298.64 103.04 297 103.04 Q 293.52 103.04 291.76 105.42 Q 290 107.8 290 112.88 Q 290 117.96 291.76 120.34 Q 293.52 122.72 297 122.72 Q 300.28 122.72 303.12 120.6 L 306.2 125.24 Q 302.24 128.72 296.2 128.72 Z M 309.64 128 L 309.64 97.76 L 316.76 97.76 L 316.76 128 Z M 322.52 128 L 322.52 97.76 L 329.24 97.76 L 340.24 116.16 L 340.24 97.76 L 347.24 97.76 L 347.24 128 L 340.56 128 L 329.52 109.56 L 329.52 128 Z M 362.28 128.72 Q 358.76 128.72 356 127.72 Q 353.24 126.72 350.92 124.84 L 353.72 119.76 Q 355.32 121.08 357.44 121.94 Q 359.56 122.8 362.08 122.8 Q 364.56 122.8 365.74 121.98 Q 366.92 121.16 366.92 119.64 Q 366.92 118.16 365.94 117.4 Q 364.96 116.64 363.24 116.16 L 360.44 115.36 Q 357.8 114.64 355.9 113.56 Q 354 112.48 352.92 110.8 Q 351.84 109.12 351.72 106.56 Q 351.56 103.64 353 101.5 Q 354.44 99.36 357.04 98.2 Q 359.64 97.04 363.12 97.04 Q 366.44 97.04 368.88 98.04 Q 371.32 99.04 373.16 100.44 L 370.24 105.16 Q 368.84 104.24 367.14 103.6 Q 365.44 102.96 363.32 102.96 Q 361 102.96 359.96 103.72 Q 358.92 104.48 358.92 105.76 Q 358.92 106.88 359.76 107.5 Q 360.6 108.12 362.6 108.72 L 366.12 109.76 Q 368.36 110.44 370.18 111.6 Q 372 112.76 373.06 114.62 Q 374.12 116.48 374.12 119.2 Q 374.12 122.4 372.62 124.52 Q 371.12 126.64 368.46 127.68 Q 365.8 128.72 362.28 128.72 Z"/>
    </g>
  </g>
</svg>
