<?xml version="1.0" encoding="UTF-8"?>
<svg id="Content" xmlns="http://www.w3.org/2000/svg" viewBox="0 0 2115 495">
  <defs>
    <style>
      .cls-1, .cls-2 {
        stroke-width: 0px;
      }

      .cls-2 {
        fill: #fff;
      }
    </style>
  </defs>
  <path class="cls-1" d="m792.33,191.49c-.32-.34-.66-.68-1-1-.32-.34-.66-.68-1-1-.32-.34-.66-.68-1-1-.32-.34-.66-.68-1-1-.32-.34-.66-.68-1-1-.32-.34-.66-.68-1-1-.32-.34-.66-.68-1-1-.32-.34-.66-.68-1-1-.32-.34-.66-.68-1-1-.32-.34-.66-.68-1-1-.32-.34-.66-.68-1-1-.32-.34-.66-.68-1-1-.32-.34-.66-.68-1-1-.32-.34-.66-.68-1-1-.32-.34-.66-.68-1-1-.32-.34-.66-.68-1-1-.32-.34-.66-.68-1-1-.32-.34-.66-.68-1-1-.32-.34-.66-.68-1-1-.32-.34-.66-.68-1-1-.32-.34-.66-.68-1-1-.32-.34-.66-.68-1-1-.32-.34-.66-.68-1-1-.32-.34-.66-.68-1-1-.32-.34-.66-.68-1-1-.32-.34-.66-.68-1-1-.32-.34-.66-.68-1-1-.32-.34-.66-.68-1-1-.32-.34-.66-.68-1-1-4.35-4.61-10.51-7.49-17.34-7.49H179.27c-13.17,0-23.84,10.67-23.84,23.84v107.34c0,6.84,2.88,13,7.49,17.34.32.34.66.68,1,1,.32.34.66.68,1,1,.32.34.66.68,1,1,.32.34.66.68,1,1,.32.34.66.68,1,1,.32.34.66.68,1,1,.32.34.66.68,1,1,.32.34.66.68,1,1,.32.34.66.68,1,1,.32.34.66.68,1,1,.32.34.66.68,1,1,.32.34.66.68,1,1,.32.34.66.68,1,1,.32.34.66.68,1,1,.32.34.66.68,1,1,.32.34.66.68,1,1,.32.34.66.68,1,1,.32.34.66.68,1,1,.32.34.66.68,1,1,.32.34.66.68,1,1,.32.34.66.68,1,1,.32.34.66.68,1,1,.32.34.66.68,1,1,.32.34.66.68,1,1,.32.34.66.68,1,1,.32.34.66.68,1,1,.32.34.66.68,1,1,.32.34.66.68,1,1,.32.34.66.68,1,1,4.35,4.61,10.51,7.49,17.34,7.49h566.72c13.17,0,23.84-10.67,23.84-23.84v-107.34c0-6.84-2.88-13-7.49-17.34Z"/>
  <rect class="cls-2" x="155.43" y="154.99" width="614.39" height="155.01" rx="23.84" ry="23.84"/>
  <g>
    <path class="cls-1" d="m268.27,259.6v-53.85h-1.91l-7,25.44h-13.36v-1.27l8.9-31.16h27.35v60.84h18.44v13.36h-53.42v-13.36h20.99Z"/>
    <path class="cls-1" d="m318.19,227.59c0-9.61,2.42-17.07,7.26-22.37,4.84-5.3,11.54-7.95,20.09-7.95s15.25,2.65,20.09,7.95c4.84,5.3,7.26,12.76,7.26,22.37v16.54c0,9.89-2.42,17.42-7.26,22.58-4.84,5.16-11.54,7.74-20.09,7.74s-15.25-2.58-20.09-7.74c-4.84-5.16-7.26-12.68-7.26-22.58v-16.54Zm27.35,34.13c2.54,0,4.66-.41,6.36-1.22,1.7-.81,3.07-1.96,4.13-3.45s1.8-3.25,2.23-5.3c.42-2.05.64-4.31.64-6.78v-18.23c0-2.33-.25-4.52-.74-6.57-.5-2.05-1.27-3.82-2.33-5.3-1.06-1.48-2.44-2.67-4.13-3.55-1.7-.88-3.75-1.32-6.15-1.32s-4.45.44-6.15,1.32c-1.7.88-3.07,2.07-4.13,3.55-1.06,1.48-1.84,3.25-2.33,5.3-.5,2.05-.74,4.24-.74,6.57v18.23c0,2.47.21,4.73.64,6.78.42,2.05,1.17,3.82,2.23,5.3s2.44,2.63,4.13,3.45c1.7.81,3.82,1.22,6.36,1.22Z"/>
    <path class="cls-1" d="m391.02,227.59c0-9.61,2.42-17.07,7.26-22.37,4.84-5.3,11.54-7.95,20.09-7.95s15.25,2.65,20.09,7.95c4.84,5.3,7.26,12.76,7.26,22.37v16.54c0,9.89-2.42,17.42-7.26,22.58-4.84,5.16-11.54,7.74-20.09,7.74s-15.25-2.58-20.09-7.74c-4.84-5.16-7.26-12.68-7.26-22.58v-16.54Zm27.35,34.13c2.54,0,4.66-.41,6.36-1.22,1.7-.81,3.07-1.96,4.13-3.45s1.8-3.25,2.23-5.3c.42-2.05.64-4.31.64-6.78v-18.23c0-2.33-.25-4.52-.74-6.57-.5-2.05-1.27-3.82-2.33-5.3-1.06-1.48-2.44-2.67-4.13-3.55-1.7-.88-3.75-1.32-6.15-1.32s-4.45.44-6.15,1.32c-1.7.88-3.07,2.07-4.13,3.55-1.06,1.48-1.84,3.25-2.33,5.3-.5,2.05-.74,4.24-.74,6.57v18.23c0,2.47.21,4.73.64,6.78.42,2.05,1.17,3.82,2.23,5.3s2.44,2.63,4.13,3.45c1.7.81,3.82,1.22,6.36,1.22Z"/>
    <path class="cls-1" d="m486.63,227.59c0-9.61,2.42-17.07,7.26-22.37,4.84-5.3,11.54-7.95,20.09-7.95s15.25,2.65,20.09,7.95c4.84,5.3,7.26,12.76,7.26,22.37v16.54c0,9.89-2.42,17.42-7.26,22.58-4.84,5.16-11.54,7.74-20.09,7.74s-15.25-2.58-20.09-7.74c-4.84-5.16-7.26-12.68-7.26-22.58v-16.54Zm27.35,34.13c2.54,0,4.66-.41,6.36-1.22,1.7-.81,3.07-1.96,4.13-3.45s1.8-3.25,2.23-5.3c.42-2.05.64-4.31.64-6.78v-18.23c0-2.33-.25-4.52-.74-6.57-.5-2.05-1.27-3.82-2.33-5.3-1.06-1.48-2.44-2.67-4.13-3.55-1.7-.88-3.75-1.32-6.15-1.32s-4.45.44-6.15,1.32c-1.7.88-3.07,2.07-4.13,3.55-1.06,1.48-1.84,3.25-2.33,5.3-.5,2.05-.74,4.24-.74,6.57v18.23c0,2.47.21,4.73.64,6.78.42,2.05,1.17,3.82,2.23,5.3s2.44,2.63,4.13,3.45c1.7.81,3.82,1.22,6.36,1.22Z"/>
    <path class="cls-1" d="m559.45,227.59c0-9.61,2.42-17.07,7.26-22.37,4.84-5.3,11.54-7.95,20.09-7.95s15.25,2.65,20.09,7.95c4.84,5.3,7.26,12.76,7.26,22.37v16.54c0,9.89-2.42,17.42-7.26,22.58-4.84,5.16-11.54,7.74-20.09,7.74s-15.25-2.58-20.09-7.74c-4.84-5.16-7.26-12.68-7.26-22.58v-16.54Zm27.35,34.13c2.54,0,4.66-.41,6.36-1.22,1.7-.81,3.07-1.96,4.13-3.45s1.8-3.25,2.23-5.3c.42-2.05.64-4.31.64-6.78v-18.23c0-2.33-.25-4.52-.74-6.57-.5-2.05-1.27-3.82-2.33-5.3-1.06-1.48-2.44-2.67-4.13-3.55-1.7-.88-3.75-1.32-6.15-1.32s-4.45.44-6.15,1.32c-1.7.88-3.07,2.07-4.13,3.55-1.06,1.48-1.84,3.25-2.33,5.3-.5,2.05-.74,4.24-.74,6.57v18.23c0,2.47.21,4.73.64,6.78.42,2.05,1.17,3.82,2.23,5.3s2.44,2.63,4.13,3.45c1.7.81,3.82,1.22,6.36,1.22Z"/>
    <path class="cls-1" d="m632.27,227.59c0-9.61,2.42-17.07,7.26-22.37,4.84-5.3,11.54-7.95,20.09-7.95s15.25,2.65,20.09,7.95c4.84,5.3,7.26,12.76,7.26,22.37v16.54c0,9.89-2.42,17.42-7.26,22.58-4.84,5.16-11.54,7.74-20.09,7.74s-15.25-2.58-20.09-7.74c-4.84-5.16-7.26-12.68-7.26-22.58v-16.54Zm27.35,34.13c2.54,0,4.66-.41,6.36-1.22,1.7-.81,3.07-1.96,4.13-3.45s1.8-3.25,2.23-5.3c.42-2.05.64-4.31.64-6.78v-18.23c0-2.33-.25-4.52-.74-6.57-.5-2.05-1.27-3.82-2.33-5.3-1.06-1.48-2.44-2.67-4.13-3.55-1.7-.88-3.75-1.32-6.15-1.32s-4.45.44-6.15,1.32c-1.7.88-3.07,2.07-4.13,3.55-1.06,1.48-1.84,3.25-2.33,5.3-.5,2.05-.74,4.24-.74,6.57v18.23c0,2.47.21,4.73.64,6.78.42,2.05,1.17,3.82,2.23,5.3s2.44,2.63,4.13,3.45c1.7.81,3.82,1.22,6.36,1.22Z"/>
  </g>
  <path class="cls-1" d="m1543.73,191.41c-.32-.34-.66-.68-1-1-.32-.34-.66-.68-1-1-.32-.34-.66-.68-1-1-.32-.34-.66-.68-1-1-.32-.34-.66-.68-1-1-.32-.34-.66-.68-1-1-.32-.34-.66-.68-1-1-.32-.34-.66-.68-1-1-.32-.34-.66-.68-1-1-.32-.34-.66-.68-1-1-.32-.34-.66-.68-1-1-.32-.34-.66-.68-1-1-.32-.34-.66-.68-1-1-.32-.34-.66-.68-1-1-.32-.34-.66-.68-1-1-.32-.34-.66-.68-1-1-.32-.34-.66-.68-1-1-.32-.34-.66-.68-1-1-.32-.34-.66-.68-1-1-.32-.34-.66-.68-1-1-.32-.34-.66-.68-1-1-.32-.34-.66-.68-1-1-.32-.34-.66-.68-1-1-.32-.34-.66-.68-1-1-.32-.34-.66-.68-1-1-.32-.34-.66-.68-1-1-.32-.34-.66-.68-1-1-.32-.34-.66-.68-1-1-.32-.34-.66-.68-1-1-4.3-4.56-10.39-7.42-17.16-7.42h-698.81c-13.02,0-23.58,10.56-23.58,23.58v107.86c0,6.76,2.85,12.86,7.42,17.16.32.34.66.68,1,1,.32.34.66.68,1,1,.32.34.66.68,1,1,.32.34.66.68,1,1,.32.34.66.68,1,1,.32.34.66.68,1,1,.32.34.66.68,1,1,.32.34.66.68,1,1,.32.34.66.68,1,1,.32.34.66.68,1,1,.32.34.66.68,1,1,.32.34.66.68,1,1,.32.34.66.68,1,1,.32.34.66.68,1,1,.32.34.66.68,1,1,.32.34.66.68,1,1,.32.34.66.68,1,1,.32.34.66.68,1,1,.32.34.66.68,1,1,.32.34.66.68,1,1,.32.34.66.68,1,1,.32.34.66.68,1,1,.32.34.66.68,1,1,.32.34.66.68,1,1,.32.34.66.68,1,1,.32.34.66.68,1,1,.32.34.66.68,1,1,.32.34.66.68,1,1,.32.34.66.68,1,1,4.3,4.56,10.39,7.42,17.16,7.42h698.81c13.02,0,23.58-10.56,23.58-23.58v-107.86c0-6.77-2.85-12.86-7.42-17.16Z"/>
  <rect class="cls-2" x="775.18" y="154.99" width="745.97" height="155.01" rx="23.58" ry="23.58"/>
  <path class="cls-1" d="m1952.07,191.49c-.32-.34-.66-.68-1-1-.32-.34-.66-.68-1-1-.32-.34-.66-.68-1-1-.32-.34-.66-.68-1-1-.32-.34-.66-.68-1-1-.32-.34-.66-.68-1-1-.32-.34-.66-.68-1-1-.32-.34-.66-.68-1-1-.32-.34-.66-.68-1-1-.32-.34-.66-.68-1-1-.32-.34-.66-.68-1-1-.32-.34-.66-.68-1-1-.32-.34-.66-.68-1-1-.32-.34-.66-.68-1-1-.32-.34-.66-.68-1-1-.32-.34-.66-.68-1-1-.32-.34-.66-.68-1-1-.32-.34-.66-.68-1-1-.32-.34-.66-.68-1-1-.32-.34-.66-.68-1-1-.32-.34-.66-.68-1-1-.32-.34-.66-.68-1-1-.32-.34-.66-.68-1-1-.32-.34-.66-.68-1-1-.32-.34-.66-.68-1-1-.32-.34-.66-.68-1-1-.32-.34-.66-.68-1-1-.32-.34-.66-.68-1-1-.32-.34-.66-.68-1-1-4.35-4.61-10.51-7.5-17.35-7.5h-352.82c-13.81,0-25,11.19-25,25v106.17c0,6.84,2.88,13,7.5,17.35.32.34.66.68,1,1,.32.34.66.68,1,1,.32.34.66.68,1,1,.32.34.66.68,1,1,.32.34.66.68,1,1,.32.34.66.68,1,1,.32.34.66.68,1,1,.32.34.66.68,1,1,.32.34.66.68,1,1,.32.34.66.68,1,1,.32.34.66.68,1,1,.32.34.66.68,1,1,.32.34.66.68,1,1,.32.34.66.68,1,1,.32.34.66.68,1,1,.32.34.66.68,1,1,.32.34.66.68,1,1,.32.34.66.68,1,1,.32.34.66.68,1,1,.32.34.66.68,1,1,.32.34.66.68,1,1,.32.34.66.68,1,1,.32.34.66.68,1,1,.32.34.66.68,1,1,.32.34.66.68,1,1,.32.34.66.68,1,1,.32.34.66.68,1,1,.32.34.66.68,1,1,.32.34.66.68,1,1,4.35,4.61,10.51,7.5,17.35,7.5h353.97c13.17,0,23.85-10.68,23.85-23.85v-107.32c0-6.84-2.88-13-7.5-17.35Z"/>
  <path class="cls-2" d="m1527.9,286.16v-106.17c0-13.81,11.19-25,25-25h352.82c13.17,0,23.85,10.68,23.85,23.85v107.32c0,13.17-10.68,23.85-23.85,23.85h-353.97c-13.17,0-23.85-10.68-23.85-23.85Z"/>
  <g>
    <path class="cls-1" d="m871.02,198.75h24.59l4.24,55.76v10.81h2.54v-10.81l4.24-55.76h24.59v74.2h-12.72v-49.61l1.27-16.96h-2.54l-5.51,66.57h-20.99l-5.72-66.57h-2.54l1.27,16.96v49.61h-12.72v-74.2Z"/>
    <path class="cls-1" d="m961.54,251.01c.07,1.56.44,2.99,1.11,4.29.67,1.31,1.59,2.44,2.76,3.39,1.17.95,2.51,1.7,4.03,2.23,1.52.53,3.13.79,4.82.79,3.32,0,5.86-.58,7.63-1.75,1.77-1.17,3.04-2.56,3.82-4.19l11.45,6.36c-.64,1.34-1.52,2.74-2.65,4.19-1.13,1.45-2.6,2.77-4.4,3.97-1.8,1.2-3.99,2.19-6.57,2.97-2.58.78-5.6,1.17-9.06,1.17-3.96,0-7.56-.64-10.81-1.91-3.25-1.27-6.06-3.11-8.43-5.51-2.37-2.4-4.21-5.33-5.51-8.8-1.31-3.46-1.96-7.38-1.96-11.77v-.64c0-4.03.69-7.7,2.07-11.02,1.38-3.32,3.27-6.15,5.67-8.48,2.4-2.33,5.21-4.15,8.43-5.46,3.21-1.31,6.66-1.96,10.33-1.96,4.52,0,8.41.79,11.66,2.39,3.25,1.59,5.94,3.6,8.06,6.04,2.12,2.44,3.67,5.12,4.66,8.06.99,2.93,1.48,5.78,1.48,8.53v7.1h-38.58Zm12.61-20.03c-3.39,0-6.15.87-8.27,2.6-2.12,1.73-3.5,3.73-4.13,5.99h24.8c-.42-2.47-1.75-4.52-3.97-6.15-2.23-1.62-5.04-2.44-8.43-2.44Zm.32-32.86h14.2l-8.9,14.42h-10.81l5.51-14.42Z"/>
    <path class="cls-1" d="m1060.33,265.32h-1.91c-.57,1.2-1.26,2.35-2.07,3.45-.81,1.1-1.87,2.07-3.18,2.92-1.31.85-2.86,1.52-4.66,2.01-1.8.49-3.98.74-6.52.74-3.25,0-6.27-.58-9.06-1.75-2.79-1.17-5.23-2.9-7.31-5.19-2.09-2.3-3.71-5.11-4.88-8.43-1.17-3.32-1.75-7.14-1.75-11.45v-1.91c0-4.24.62-8.02,1.85-11.34,1.24-3.32,2.93-6.13,5.09-8.43,2.15-2.3,4.66-4.04,7.53-5.25,2.86-1.2,5.88-1.8,9.06-1.8,4.24,0,7.6.79,10.07,2.39,2.47,1.59,4.42,3.83,5.83,6.73h1.91v-29.26h13.36v74.2h-13.36v-7.63Zm-13.99-3.6c4.17,0,7.54-1.33,10.12-3.97,2.58-2.65,3.87-6.13,3.87-10.44v-1.27c0-4.31-1.29-7.79-3.87-10.44-2.58-2.65-5.95-3.98-10.12-3.98s-7.54,1.29-10.12,3.87c-2.58,2.58-3.87,6.09-3.87,10.55v1.27c0,4.45,1.29,7.97,3.87,10.55,2.58,2.58,5.95,3.87,10.12,3.87Z"/>
    <path class="cls-1" d="m1107.18,251.01c.07,1.56.44,2.99,1.11,4.29.67,1.31,1.59,2.44,2.76,3.39,1.17.95,2.51,1.7,4.03,2.23,1.52.53,3.13.79,4.82.79,3.32,0,5.86-.58,7.63-1.75,1.77-1.17,3.04-2.56,3.82-4.19l11.45,6.36c-.64,1.34-1.52,2.74-2.65,4.19-1.13,1.45-2.6,2.77-4.4,3.97-1.8,1.2-3.99,2.19-6.57,2.97-2.58.78-5.6,1.17-9.06,1.17-3.96,0-7.56-.64-10.81-1.91-3.25-1.27-6.06-3.11-8.43-5.51-2.37-2.4-4.21-5.33-5.51-8.8-1.31-3.46-1.96-7.38-1.96-11.77v-.64c0-4.03.69-7.7,2.07-11.02,1.38-3.32,3.27-6.15,5.67-8.48,2.4-2.33,5.21-4.15,8.43-5.46,3.21-1.31,6.66-1.96,10.33-1.96,4.52,0,8.41.79,11.66,2.39,3.25,1.59,5.94,3.6,8.06,6.04,2.12,2.44,3.67,5.12,4.66,8.06.99,2.93,1.48,5.78,1.48,8.53v7.1h-38.58Zm12.61-20.03c-3.39,0-6.15.87-8.27,2.6-2.12,1.73-3.5,3.73-4.13,5.99h24.8c-.42-2.47-1.75-4.52-3.97-6.15-2.23-1.62-5.04-2.44-8.43-2.44Z"/>
    <path class="cls-1" d="m1219.54,253.66c-1.2,6.22-4.05,11.24-8.53,15.05-4.49,3.82-10.48,5.72-17.97,5.72-3.89,0-7.51-.6-10.86-1.8-3.36-1.2-6.27-2.93-8.75-5.19-2.47-2.26-4.42-5.05-5.83-8.37-1.41-3.32-2.12-7.1-2.12-11.34v-1.27c0-4.24.71-8.06,2.12-11.45,1.41-3.39,3.37-6.29,5.88-8.69,2.51-2.4,5.44-4.24,8.8-5.51,3.36-1.27,6.94-1.91,10.76-1.91,7.35,0,13.3,1.91,17.86,5.72s7.44,8.83,8.64,15.05l-13.14,3.39c-.42-3.11-1.77-5.79-4.03-8.06-2.26-2.26-5.44-3.39-9.54-3.39-1.91,0-3.71.35-5.41,1.06-1.7.71-3.18,1.71-4.45,3.02-1.27,1.31-2.28,2.9-3.02,4.77-.74,1.87-1.11,3.97-1.11,6.31v.64c0,2.33.37,4.4,1.11,6.2.74,1.8,1.75,3.3,3.02,4.51s2.76,2.1,4.45,2.7c1.7.6,3.5.9,5.41.9,4.1,0,7.22-1.02,9.38-3.07,2.15-2.05,3.55-4.8,4.19-8.27l13.14,3.29Z"/>
    <path class="cls-1" d="m1242.02,260.23h17.81v-27.14h-16.54v-12.72h29.89v39.86h15.26v12.72h-46.43v-12.72Zm34.45-55.44c0,1.41-.26,2.74-.79,3.98-.53,1.24-1.26,2.3-2.17,3.18-.92.88-2,1.59-3.23,2.12-1.24.53-2.53.79-3.87.79-1.41,0-2.72-.27-3.92-.79-1.2-.53-2.26-1.24-3.18-2.12-.92-.88-1.64-1.94-2.17-3.18-.53-1.24-.79-2.56-.79-3.98s.26-2.74.79-3.97c.53-1.24,1.25-2.3,2.17-3.18.92-.88,1.98-1.59,3.18-2.12,1.2-.53,2.51-.79,3.92-.79,1.34,0,2.63.27,3.87.79,1.24.53,2.31,1.24,3.23,2.12.92.88,1.64,1.94,2.17,3.18.53,1.24.79,2.56.79,3.97Z"/>
    <path class="cls-1" d="m1327.24,272.96h-13.36v-52.58h13.36v7.84h1.91c1.2-2.97,3.14-5.26,5.83-6.89,2.69-1.62,5.83-2.44,9.43-2.44,2.54,0,4.93.41,7.16,1.22,2.23.81,4.19,2.07,5.88,3.76,1.7,1.7,3.02,3.85,3.98,6.47.95,2.62,1.43,5.72,1.43,9.33v33.29h-13.36v-29.89c0-3.74-.9-6.69-2.7-8.85-1.8-2.15-4.4-3.23-7.79-3.23-3.96,0-6.91,1.33-8.85,3.97-1.94,2.65-2.92,6.2-2.92,10.65v27.35Z"/>
    <path class="cls-1" d="m1403.45,235.22c0,1.7.88,2.92,2.65,3.66,1.77.74,4.98,1.36,9.65,1.86,5.37.57,9.75,2.17,13.14,4.82s5.09,6.34,5.09,11.08v.64c0,5.23-1.91,9.4-5.72,12.51-3.82,3.11-9.19,4.66-16.11,4.66-4.1,0-7.6-.53-10.49-1.59-2.9-1.06-5.3-2.39-7.21-3.98-1.91-1.59-3.38-3.36-4.4-5.3-1.03-1.94-1.71-3.83-2.07-5.67l12.3-4.03c.56,2.26,1.75,4.24,3.55,5.94,1.8,1.7,4.57,2.54,8.32,2.54,3.32,0,5.6-.51,6.84-1.54,1.24-1.02,1.85-2.14,1.85-3.34,0-.71-.16-1.36-.48-1.96-.32-.6-.9-1.17-1.75-1.7-.85-.53-2-.97-3.44-1.33-1.45-.35-3.27-.64-5.46-.85-5.94-.49-10.65-2.03-14.15-4.61-3.5-2.58-5.25-6.38-5.25-11.39v-.64c0-2.61.56-4.91,1.7-6.89,1.13-1.98,2.61-3.66,4.45-5.04,1.84-1.38,3.96-2.42,6.36-3.13,2.4-.71,4.88-1.06,7.42-1.06,3.32,0,6.2.41,8.64,1.22,2.44.81,4.5,1.87,6.2,3.18,1.7,1.31,3.07,2.76,4.13,4.35s1.87,3.13,2.44,4.61l-12.08,4.88c-.64-1.91-1.73-3.41-3.29-4.51-1.56-1.09-3.57-1.64-6.04-1.64-2.26,0-3.96.41-5.09,1.22-1.13.81-1.7,1.82-1.7,3.02Z"/>
  </g>
  <g>
    <path class="cls-1" d="m1610.88,258.37c0,1.41-.26,2.74-.79,3.97-.53,1.24-1.26,2.3-2.17,3.18-.92.88-2,1.59-3.23,2.12-1.24.53-2.53.79-3.87.79-1.41,0-2.72-.26-3.92-.79-1.2-.53-2.26-1.24-3.18-2.12-.92-.88-1.64-1.94-2.17-3.18-.53-1.24-.79-2.56-.79-3.97s.26-2.74.79-3.98c.53-1.24,1.25-2.3,2.17-3.18.92-.88,1.98-1.59,3.18-2.12,1.2-.53,2.51-.79,3.92-.79,1.34,0,2.63.26,3.87.79,1.24.53,2.31,1.24,3.23,2.12.92.88,1.64,1.95,2.17,3.18.53,1.24.79,2.56.79,3.98Z"/>
    <path class="cls-1" d="m1700.98,241.3c0,4.38-.74,8.25-2.23,11.61-1.48,3.36-3.5,6.18-6.04,8.48-2.54,2.3-5.46,4.05-8.75,5.25s-6.73,1.8-10.33,1.8-7.05-.6-10.33-1.8-6.2-2.95-8.75-5.25c-2.54-2.3-4.56-5.12-6.04-8.48-1.48-3.36-2.23-7.22-2.23-11.61v-1.27c0-4.31.74-8.14,2.23-11.5,1.48-3.36,3.5-6.2,6.04-8.53s5.46-4.1,8.75-5.3c3.29-1.2,6.73-1.8,10.33-1.8s7.05.6,10.33,1.8c3.29,1.2,6.2,2.97,8.75,5.3s4.56,5.18,6.04,8.53c1.48,3.36,2.23,7.19,2.23,11.5v1.27Zm-27.35,14.42c1.91,0,3.71-.32,5.41-.95,1.7-.64,3.18-1.55,4.45-2.76,1.27-1.2,2.28-2.67,3.02-4.4.74-1.73,1.11-3.69,1.11-5.88v-2.12c0-2.19-.37-4.15-1.11-5.88-.74-1.73-1.75-3.2-3.02-4.4-1.27-1.2-2.76-2.12-4.45-2.76-1.7-.64-3.5-.95-5.41-.95s-3.71.32-5.41.95c-1.7.64-3.18,1.56-4.45,2.76-1.27,1.2-2.28,2.67-3.02,4.4-.74,1.73-1.11,3.69-1.11,5.88v2.12c0,2.19.37,4.15,1.11,5.88.74,1.73,1.75,3.2,3.02,4.4,1.27,1.2,2.76,2.12,4.45,2.76,1.7.64,3.5.95,5.41.95Z"/>
    <path class="cls-1" d="m1719.75,214.38h22.26v7.63h1.91c.99-2.9,2.67-5.14,5.03-6.73,2.37-1.59,5.21-2.39,8.53-2.39,5.23,0,9.43,1.64,12.61,4.93,3.18,3.29,4.77,8.29,4.77,15v2.33l-13.78,1.27v-1.48c0-2.9-.74-5.21-2.23-6.94-1.48-1.73-3.71-2.6-6.68-2.6s-5.3,1.02-7,3.07c-1.7,2.05-2.54,4.98-2.54,8.8v16.96h12.08v12.72h-36.25v-12.72h10.81v-27.14h-9.54v-12.72Z"/>
    <path class="cls-1" d="m1832.64,259.32h-1.91c-.57,1.2-1.26,2.35-2.07,3.45-.81,1.1-1.87,2.07-3.18,2.92-1.31.85-2.86,1.52-4.66,2.01-1.8.49-3.98.74-6.52.74-3.25,0-6.27-.58-9.06-1.75-2.79-1.17-5.23-2.9-7.31-5.19-2.09-2.3-3.71-5.11-4.88-8.43-1.17-3.32-1.75-7.14-1.75-11.45v-1.91c0-4.24.62-8.02,1.85-11.34,1.24-3.32,2.93-6.13,5.09-8.43,2.15-2.3,4.66-4.04,7.53-5.25,2.86-1.2,5.88-1.8,9.06-1.8,4.24,0,7.6.79,10.07,2.39,2.47,1.59,4.42,3.83,5.83,6.73h1.91v-7.63h13.36v65.51c0,2.4-.76,4.38-2.28,5.94-1.52,1.55-3.48,2.33-5.88,2.33h-35.4v-12.72h27.35c1.91,0,2.86-1.06,2.86-3.18v-12.93Zm-13.99-3.6c4.17,0,7.54-1.33,10.12-3.97,2.58-2.65,3.87-6.13,3.87-10.44v-1.27c0-4.31-1.29-7.79-3.87-10.44-2.58-2.65-5.95-3.97-10.12-3.97s-7.54,1.29-10.12,3.87c-2.58,2.58-3.87,6.09-3.87,10.55v1.27c0,4.45,1.29,7.97,3.87,10.55,2.58,2.58,5.95,3.87,10.12,3.87Z"/>
  </g>
  <path class="cls-1" d="m745.99,155.49c12.87,0,23.34,10.47,23.34,23.34v107.34c0,12.87-10.47,23.34-23.34,23.34H179.27c-12.87,0-23.34-10.47-23.34-23.34v-107.34c0-12.87,10.47-23.34,23.34-23.34h566.72m0-.5H179.27c-13.17,0-23.84,10.67-23.84,23.84v107.34c0,13.17,10.67,23.84,23.84,23.84h566.72c13.17,0,23.84-10.67,23.84-23.84v-107.34c0-13.17-10.67-23.84-23.84-23.84h0Z"/>
  <path class="cls-1" d="m1497.58,155.49c12.72,0,23.08,10.35,23.08,23.08v107.86c0,12.72-10.35,23.08-23.08,23.08h-698.81c-12.72,0-23.08-10.35-23.08-23.08v-107.86c0-12.72,10.35-23.08,23.08-23.08h698.81m0-.5h-698.81c-13.02,0-23.58,10.56-23.58,23.58v107.86c0,13.02,10.56,23.58,23.58,23.58h698.81c13.02,0,23.58-10.56,23.58-23.58v-107.86c0-13.02-10.56-23.58-23.58-23.58h0Z"/>
  <path class="cls-1" d="m1905.72,155.49c12.87,0,23.35,10.47,23.35,23.35v107.32c0,12.87-10.47,23.35-23.35,23.35h-353.97c-12.87,0-23.35-10.47-23.35-23.35v-106.17c0-13.51,10.99-24.5,24.5-24.5h352.82m0-.5h-352.82c-13.81,0-25,11.19-25,25v106.17c0,13.17,10.68,23.85,23.85,23.85h353.97c13.17,0,23.85-10.68,23.85-23.85v-107.32c0-13.17-10.68-23.85-23.85-23.85h0Z"/>
</svg>