<svg id="Calque_1" data-name="Calque 1" xmlns="http://www.w3.org/2000/svg" viewBox="0 0 528.42 206.68" width="207" height="81">
  <path d="M6.66,27.58H48.87a6.67,6.67,0,0,1,6.67,6.67h0V76.46a6.66,6.66,0,0,1-6.66,6.66H6.67A6.67,6.67,0,0,1,0,76.45V34.25a6.66,6.66,0,0,1,6.65-6.67Z" transform="translate(0)" style="fill: #b3b3b3"/>
  <path d="M98.21,61.64h0A4.81,4.81,0,0,0,95,61.8a4.52,4.52,0,0,0-2.46,5.9l0,0A4.6,4.6,0,0,0,98.57,70a4.4,4.4,0,0,0,2.21-2V68a9.4,9.4,0,0,1,4.77-4.47,9.29,9.29,0,0,1,6.7-.38h.12a4.86,4.86,0,0,0,2.82-.27,4.53,4.53,0,0,0,2.47-5.9l0,0a4.63,4.63,0,0,0-6.07-2.29,4.57,4.57,0,0,0-2.37,2.29h0a9.4,9.4,0,0,1-4.66,4.16,9.58,9.58,0,0,1-6.29.46" transform="translate(0)" style="fill: #0091cf"/>
  <path d="M77,45.06h0a4.66,4.66,0,0,0-2.19,2.38,4.51,4.51,0,0,0,2.46,5.88l.07,0a4.6,4.6,0,0,0,5.94-2.6,4.31,4.31,0,0,0,.14-2.94h0a9.24,9.24,0,0,1,.17-6.49,9.13,9.13,0,0,1,4.46-5l.1-.06A4.56,4.56,0,0,0,90,34.16a4.5,4.5,0,0,0-2.44-5.88l-.08,0a4.62,4.62,0,0,0-5.94,2.61,4.5,4.5,0,0,0,0,3.27h0A9.53,9.53,0,0,1,77.09,45" transform="translate(0)" style="fill: #0091cf"/>
  <path d="M70.15,43.69h0a4.5,4.5,0,0,0,1.06-3,4.55,4.55,0,1,0-8.07,3h0a9.22,9.22,0,0,1,2.43,6A9,9,0,0,1,63.47,56l0,.07a4.74,4.74,0,0,0-.8,2.68,4.55,4.55,0,1,0,7.82-3.26h0a9.34,9.34,0,0,1-2.2-5.84,9.13,9.13,0,0,1,1.91-5.93" transform="translate(0)" style="fill: #0091cf"/>
  <path d="M94.49,55.81h0a4.67,4.67,0,0,0,3-1.28,4.48,4.48,0,0,0,.24-6.33l-.07-.07a4.64,4.64,0,0,0-6.49-.06,4.47,4.47,0,0,0-1.34,2.57v0a9.61,9.61,0,0,1-9,8.53H80.7a4.57,4.57,0,0,0-2.55,1.23,4.47,4.47,0,0,0-.26,6.32l.08.08a4.65,4.65,0,0,0,6.5.06,4.74,4.74,0,0,0,1.4-3h0a9.2,9.2,0,0,1,2.87-5.52,9.39,9.39,0,0,1,5.73-2.61" transform="translate(0)" style="fill: #0091cf"/>
  <path d="M90.9,74.5h0a4.64,4.64,0,0,0-7.73,3.23,4.57,4.57,0,0,0,4.53,4.55,4.66,4.66,0,0,0,2.84-.9h0a9.5,9.5,0,0,1,6.22-2.13,9.25,9.25,0,0,1,6.29,2.39l.09.06a4.7,4.7,0,0,0,2.68.91,4.5,4.5,0,0,0,.14-9,4.68,4.68,0,0,0-3.1,1.11h0A9.79,9.79,0,0,1,91,74.46" transform="translate(0)" style="fill: #0091cf"/>
  <path d="M55.54,139.55a6.67,6.67,0,0,1-6.67,6.66H6.7A6.66,6.66,0,0,1,0,139.56H0V97.34a6.66,6.66,0,0,1,6.62-6.7H48.9a6.67,6.67,0,0,1,6.67,6.66Z" transform="translate(0)" style="fill: #0091cf"/>
  <rect x="63.23" y="90.68" width="55.54" height="55.54" rx="6.66" style="fill: #666"/>
  <path d="M170.07,82.14c-7.84,0-14.53-2.66-19.33-7.68-4.58-4.79-7.1-11.53-7.1-19,0-15.7,10.87-26.66,26.42-26.66h.45a24.63,24.63,0,0,1,18.58,8.84l.66.78-7.27,5.52-.57-.87a13.61,13.61,0,0,0-11.41-6h-.41c-10.18,0-17,7.42-17,18.47S159.93,74,170.09,74h.4a13.61,13.61,0,0,0,11.42-6l.57-.87,7.27,5.52-.66.77a24.59,24.59,0,0,1-18.57,8.8Z" transform="translate(0)" style="fill: #222124"/>
  <path d="M217.79,82.13c-15,0-26.23-11.46-26.23-26.65s11-26.66,25.61-26.66c14.34.1,24.35,10.55,24.35,25.4v4.1H200.9c1.23,9.11,8.19,15.62,16.89,15.62a17.45,17.45,0,0,0,14.85-8l.59-.94,6.9,5.68-.58.74A26.52,26.52,0,0,1,217.79,82.13ZM201,50.76h31C231.65,42.25,226,37,217.15,37,209.21,37,201.7,43.56,201,50.76Z" transform="translate(0)" style="fill: #222124"/>
  <path d="M273.06,106c-10,0-17.72-3.22-24.2-10.13l-.62-.66,6.52-6.91.68.91a22.34,22.34,0,0,0,17.93,8.59c14.92,0,18.05-9.93,18.05-18.26V73.33c-5.22,6.17-12.29,7.55-17.53,7.55-14.82,0-26.44-11.34-26.44-25.82,0-15,11.1-26.24,25.82-26.24a23.52,23.52,0,0,1,18.15,7.91V30.08h8.82V79.49C300.24,89.37,296.7,106,273.06,106Zm1-68.94c-9.49,0-17.21,8-17.21,17.84s7.72,17.84,17.21,17.84A18,18,0,0,0,287,67.34a16.64,16.64,0,0,0,4.59-12.45c0-10.54-7.17-17.88-17.49-17.88Z" transform="translate(0)" style="fill: #222124"/>
  <path d="M334.62,82.13c-15,0-26.24-11.46-26.24-26.65s11-26.66,25.61-26.66c14.34.1,24.35,10.55,24.35,25.4v4.1H317.7c1.24,9.11,8.2,15.62,16.9,15.62a17.44,17.44,0,0,0,14.84-8L350,65,357,70.64l-.58.74A26.55,26.55,0,0,1,334.62,82.13ZM317.86,50.76h31C348.47,42.25,342.86,37,334,37,326,37,318.49,43.56,317.86,50.76Z" transform="translate(0)" style="fill: #222124"/>
  <path d="M391.12,82.13c-15.62,0-27-11.21-27-26.65s11.34-26.66,27-26.66c5.46,0,13.18,2.1,18.26,7.84V0h8.82V80.88h-8.82V74.29C404.3,80,396.58,82.13,391.12,82.13Zm0-45.12c-10.31,0-17.52,7.6-17.52,18.47s7.21,18.46,17.52,18.46A18.13,18.13,0,0,0,409.7,56.29c0-.27,0-.54,0-.81A18.11,18.11,0,0,0,391.94,37Z" transform="translate(0)" style="fill: #222124"/>
  <path d="M435.83,18.21a6,6,0,1,1,6-6A6,6,0,0,1,435.83,18.21Z" transform="translate(0)" style="fill: #222124"/>
  <path d="M440.23,80.88h-8.81V30.08h8.81Z" transform="translate(0)" style="fill: #222124"/>
  <path d="M528.28,80.88h-8.81V51.4c0-10.35-3.19-14.39-11.36-14.39-11.58,0-12.83,11.82-12.83,16.9v27h-8.82V51.4c0-10.35-3.18-14.39-11.36-14.39-.52,0-12.83.2-12.83,17.84v26h-8.81v-39c0-2.67-.17-5.25-.34-8L452.94,31l-.06-1h9.39v5.67a20.15,20.15,0,0,1,15-6.93c5.2,0,11.94,1.6,15.64,8.9a18.87,18.87,0,0,1,16-8.9c12.65,0,19.34,6.94,19.34,20.07Z" transform="translate(0)" style="fill: #222124"/>
  <path d="M151.39,112.16v28.41h17v3.59H147.13v-32Z" transform="translate(0)" style="fill: #0091cf"/>
  <path d="M170.89,127.82A10.91,10.91,0,0,1,173,124a10.09,10.09,0,0,1,3.55-2.58,13,13,0,0,1,9.7,0,10.32,10.32,0,0,1,3.52,2.58,10.91,10.91,0,0,1,2.15,3.85,16,16,0,0,1,0,9.57,10.91,10.91,0,0,1-2.15,3.83,9.9,9.9,0,0,1-3.52,2.55,13.21,13.21,0,0,1-9.7,0,9.89,9.89,0,0,1-3.55-2.55,10.91,10.91,0,0,1-2.15-3.83,16.48,16.48,0,0,1,0-9.57Zm3.88,8.52a7.56,7.56,0,0,0,1.55,2.73,6.49,6.49,0,0,0,2.3,1.68,7,7,0,0,0,5.61,0,6.74,6.74,0,0,0,2.31-1.68,7.87,7.87,0,0,0,1.54-2.73,12.75,12.75,0,0,0,0-7.49,8.12,8.12,0,0,0-1.54-2.75,6.6,6.6,0,0,0-2.31-1.71,7.1,7.1,0,0,0-5.61,0,6.57,6.57,0,0,0-2.3,1.71,7.89,7.89,0,0,0-1.55,2.75A12.75,12.75,0,0,0,174.77,136.34Z" transform="translate(0)" style="fill: #0091cf"/>
  <path d="M214.55,150.71q-2.6,2.82-8.16,2.82a15.14,15.14,0,0,1-3.29-.36,10.2,10.2,0,0,1-3-1.17,7,7,0,0,1-2.26-2.1,6,6,0,0,1-1-3.19h3.81a2.8,2.8,0,0,0,.65,1.75,4.6,4.6,0,0,0,1.45,1.18,7.49,7.49,0,0,0,1.9.65,10.36,10.36,0,0,0,2,.2,7.12,7.12,0,0,0,3.18-.65,5.92,5.92,0,0,0,2.15-1.79,7.17,7.17,0,0,0,1.23-2.76,15.07,15.07,0,0,0,.39-3.54v-1.52h-.09a6.53,6.53,0,0,1-3,3.16,9.27,9.27,0,0,1-4.23,1,10.13,10.13,0,0,1-4.53-.94,9.49,9.49,0,0,1-3.23-2.53,11,11,0,0,1-2-3.72,15.28,15.28,0,0,1-.65-4.51,17.71,17.71,0,0,1,.54-4.23,11.68,11.68,0,0,1,1.79-4,9.88,9.88,0,0,1,3.32-2.91,10.39,10.39,0,0,1,5.07-1.14,8.59,8.59,0,0,1,4,1,6.84,6.84,0,0,1,2.87,2.89h.05V121H217v21.2Q217.15,147.88,214.55,150.71Zm-4.85-10.43a6.36,6.36,0,0,0,2.13-2.06,9.47,9.47,0,0,0,1.18-2.89,13.53,13.53,0,0,0,.39-3.23,12.63,12.63,0,0,0-.36-3,8.13,8.13,0,0,0-1.15-2.67,5.78,5.78,0,0,0-2-1.9,5.92,5.92,0,0,0-3-.72,6.56,6.56,0,0,0-3.14.69,6.24,6.24,0,0,0-2.13,1.86,7.87,7.87,0,0,0-1.21,2.69,13.71,13.71,0,0,0-.38,3.19,15.67,15.67,0,0,0,.31,3.13,8.8,8.8,0,0,0,1.08,2.85,6.06,6.06,0,0,0,2,2.06,5.77,5.77,0,0,0,3.14.79A6.16,6.16,0,0,0,209.7,140.28Z" transform="translate(0)" style="fill: #0091cf"/>
  <path d="M223.11,116.82v-4.66h3.81v4.66Zm3.81,4.17v23.17h-3.81V121Z" transform="translate(0)" style="fill: #0091cf"/>
  <path d="M246.7,125a5.78,5.78,0,0,0-3.86-1.21,7.11,7.11,0,0,0-3.45.76,6.27,6.27,0,0,0-2.22,2,8.4,8.4,0,0,0-1.18,2.89,16,16,0,0,0-.36,3.38A12.33,12.33,0,0,0,236,136a8.12,8.12,0,0,0,1.19,2.71,6,6,0,0,0,2.1,1.91,7.21,7.21,0,0,0,7.51-.76,6.71,6.71,0,0,0,2-4.17h3.89a10.68,10.68,0,0,1-3.2,6.63,10,10,0,0,1-7,2.33,12.1,12.1,0,0,1-4.68-.85,9.06,9.06,0,0,1-3.41-2.42,10.32,10.32,0,0,1-2.06-3.74,15.5,15.5,0,0,1-.7-4.78,17,17,0,0,1,.68-4.86,10.81,10.81,0,0,1,2-3.94,9.55,9.55,0,0,1,3.42-2.65,11.36,11.36,0,0,1,4.8-1,14,14,0,0,1,3.7.47,8.9,8.9,0,0,1,3,1.46,7.83,7.83,0,0,1,2.17,2.48,9.15,9.15,0,0,1,1.08,3.57h-3.95A5.78,5.78,0,0,0,246.7,125Z" transform="translate(0)" style="fill: #0091cf"/>
  <path d="M257.13,116.82v-4.66h3.81v4.66Zm3.81,4.17v23.17h-3.81V121Z" transform="translate(0)" style="fill: #0091cf"/>
  <path d="M283.26,142.64a10.49,10.49,0,0,1-6.54,2,12.06,12.06,0,0,1-4.82-.89,9.59,9.59,0,0,1-3.43-2.51,10.72,10.72,0,0,1-2.08-3.86,18.78,18.78,0,0,1-.79-4.88,13.84,13.84,0,0,1,.81-4.85,11.59,11.59,0,0,1,2.26-3.81,10.47,10.47,0,0,1,3.46-2.51,10.62,10.62,0,0,1,4.37-.89,9.4,9.4,0,0,1,5.13,1.28A10.12,10.12,0,0,1,284.9,125a12.86,12.86,0,0,1,1.7,4.31,18.4,18.4,0,0,1,.39,4.44H269.64a9.4,9.4,0,0,0,.36,2.89,6.61,6.61,0,0,0,1.3,2.42,6.41,6.41,0,0,0,2.28,1.68,7.86,7.86,0,0,0,3.28.63,6.68,6.68,0,0,0,4-1.12,5.47,5.47,0,0,0,2-3.41h3.77A9.24,9.24,0,0,1,283.26,142.64Zm-.91-14.88a6.7,6.7,0,0,0-1.39-2.09,6.54,6.54,0,0,0-2.06-1.38,7,7,0,0,0-5.29,0,6,6,0,0,0-2,1.41,6.66,6.66,0,0,0-1.35,2.08,7.9,7.9,0,0,0-.58,2.53H283a7.8,7.8,0,0,0-.64-2.51Z" transform="translate(0)" style="fill: #0091cf"/>
  <path d="M295,112.16v32h-3.81v-32Z" transform="translate(0)" style="fill: #0091cf"/>
  <path d="M303.79,139a3.94,3.94,0,0,0,1.42,1.39,6.27,6.27,0,0,0,2,.74,11.4,11.4,0,0,0,2.26.23,13.36,13.36,0,0,0,1.89-.14,6.75,6.75,0,0,0,1.81-.49,3.58,3.58,0,0,0,1.37-1,2.83,2.83,0,0,0,.53-1.78,2.54,2.54,0,0,0-1.12-2.24,9.6,9.6,0,0,0-2.8-1.23c-1.12-.31-2.34-.6-3.65-.85a18,18,0,0,1-3.65-1.08,7.58,7.58,0,0,1-2.81-2,5.12,5.12,0,0,1-1.12-3.49,5.67,5.67,0,0,1,.79-3,6.36,6.36,0,0,1,2-2,9,9,0,0,1,2.77-1.16,12.8,12.8,0,0,1,3.08-.38,18.43,18.43,0,0,1,3.63.33,8.66,8.66,0,0,1,2.93,1.17,6.07,6.07,0,0,1,2,2.24,8.46,8.46,0,0,1,.9,3.52h-3.81a3.84,3.84,0,0,0-.58-1.86,3.9,3.9,0,0,0-1.23-1.26,5.92,5.92,0,0,0-1.68-.65,8.9,8.9,0,0,0-1.86-.2,11.1,11.1,0,0,0-1.73.13,5.52,5.52,0,0,0-1.59.48,3.06,3.06,0,0,0-1.16.89,2.32,2.32,0,0,0-.45,1.46,2.11,2.11,0,0,0,.69,1.63,5.48,5.48,0,0,0,1.77,1.08,17.22,17.22,0,0,0,2.42.72c.9.19,1.8.39,2.69.6s1.89.47,2.81.76a9.56,9.56,0,0,1,2.42,1.19,6,6,0,0,1,1.7,1.86,5.48,5.48,0,0,1,.65,2.78,6.49,6.49,0,0,1-.87,3.5,7,7,0,0,1-2.29,2.24,9.57,9.57,0,0,1-3.18,1.19,18.9,18.9,0,0,1-3.52.33,16.27,16.27,0,0,1-3.68-.4,9.21,9.21,0,0,1-3.09-1.32,6.76,6.76,0,0,1-2.15-2.42,8.48,8.48,0,0,1-.9-3.66h3.81A4.28,4.28,0,0,0,303.79,139Z" transform="translate(0)" style="fill: #0091cf"/>
  <path d="M342.3,112.16l10.08,26.89,10.13-26.89h5.83v32h-4V117.53h-.09l-10,26.63h-3.63l-10-26.63h-.09v26.63h-4v-32Z" transform="translate(0)" style="fill: #0091cf"/>
  <path d="M391.2,142.64a10.49,10.49,0,0,1-6.54,2,11.89,11.89,0,0,1-4.82-.89,9.59,9.59,0,0,1-3.43-2.51,10.57,10.57,0,0,1-2.08-3.86,18.37,18.37,0,0,1-.79-4.88,13.84,13.84,0,0,1,.81-4.85,11.59,11.59,0,0,1,2.26-3.81,10.33,10.33,0,0,1,3.45-2.51,10.78,10.78,0,0,1,4.37-.89,9.46,9.46,0,0,1,5.14,1.28,10.32,10.32,0,0,1,3.27,3.24,12.86,12.86,0,0,1,1.7,4.31,18.91,18.91,0,0,1,.38,4.44H377.58a9.1,9.1,0,0,0,.35,2.89,6.35,6.35,0,0,0,3.59,4.1,7.81,7.81,0,0,0,3.27.63,6.68,6.68,0,0,0,4-1.12,5.47,5.47,0,0,0,2-3.41h3.76A9.24,9.24,0,0,1,391.2,142.64Zm-.92-14.88a6.73,6.73,0,0,0-8.74-3.47,6.11,6.11,0,0,0-2,1.41,6.63,6.63,0,0,0-1.34,2.08,7.58,7.58,0,0,0-.58,2.53h13.31a7.51,7.51,0,0,0-.65-2.51Zm-4.73-18.12-4.3,7.27h2.87l6.32-7.27Z" transform="translate(0)" style="fill: #0091cf"/>
  <path d="M415.76,144.16V141h-.06a5.56,5.56,0,0,1-3,2.78,11.28,11.28,0,0,1-4.44.85,10.56,10.56,0,0,1-4.69-1,9.59,9.59,0,0,1-3.31-2.65,11.69,11.69,0,0,1-2-3.85,16,16,0,0,1-.67-4.66,16.41,16.41,0,0,1,.65-4.67,11.06,11.06,0,0,1,2-3.83,9.58,9.58,0,0,1,3.32-2.6,10.62,10.62,0,0,1,4.64-1,10.74,10.74,0,0,1,4,.78,9.22,9.22,0,0,1,1.95,1.12,6.07,6.07,0,0,1,1.54,1.73h.09V112.16h3.82v32Zm-13.69-8.23a8.33,8.33,0,0,0,1.3,2.76,6.32,6.32,0,0,0,2.24,1.93,6.74,6.74,0,0,0,3.21.72,6.34,6.34,0,0,0,5.47-2.76,8.67,8.67,0,0,0,1.23-2.8,13.65,13.65,0,0,0,0-6.48,8.2,8.2,0,0,0-1.28-2.8,6.48,6.48,0,0,0-2.26-2,7.15,7.15,0,0,0-3.37-.74,6.54,6.54,0,0,0-3.27.76,6.07,6.07,0,0,0-2.15,2,8.78,8.78,0,0,0-1.17,2.87,14.78,14.78,0,0,0-.35,3.31,12.12,12.12,0,0,0,.4,3.23Z" transform="translate(0)" style="fill: #0091cf"/>
  <path d="M425.7,116.82v-4.66h3.81v4.66Zm3.81,4.17v23.17H425.7V121Z" transform="translate(0)" style="fill: #0091cf"/>
  <path d="M449.25,125a5.78,5.78,0,0,0-3.86-1.21,7.11,7.11,0,0,0-3.45.76,6.27,6.27,0,0,0-2.22,2,8.4,8.4,0,0,0-1.18,2.89,14.76,14.76,0,0,0-.36,3.38,12.33,12.33,0,0,0,.38,3.14,8.12,8.12,0,0,0,1.19,2.71,5.75,5.75,0,0,0,2.1,1.91,7.21,7.21,0,0,0,7.51-.76,6.73,6.73,0,0,0,1.95-4.17h3.9A10.7,10.7,0,0,1,452,142.3a10,10,0,0,1-7,2.33,12.1,12.1,0,0,1-4.68-.85,9.06,9.06,0,0,1-3.41-2.42,10.32,10.32,0,0,1-2.06-3.74,15.5,15.5,0,0,1-.7-4.78,17.38,17.38,0,0,1,.67-4.86,11.3,11.3,0,0,1,2-3.94,9.67,9.67,0,0,1,3.43-2.65,11.36,11.36,0,0,1,4.8-1,14,14,0,0,1,3.7.47,9.14,9.14,0,0,1,3.05,1.46A7.83,7.83,0,0,1,454,124.8a9.15,9.15,0,0,1,1.08,3.57H451.1A5.87,5.87,0,0,0,449.25,125Z" transform="translate(0)" style="fill: #0091cf"/>
  <path d="M480,144.07a5.42,5.42,0,0,1-2.74.58,3.23,3.23,0,0,1-2.35-.83,3.63,3.63,0,0,1-.87-2.71,9.1,9.1,0,0,1-3.66,2.71,12.58,12.58,0,0,1-7.48.47,6.91,6.91,0,0,1-2.45-1.12,5.28,5.28,0,0,1-1.63-2,6.75,6.75,0,0,1-.61-3,7,7,0,0,1,.67-3.23,5.8,5.8,0,0,1,1.78-2,8,8,0,0,1,2.51-1.19,28.8,28.8,0,0,1,2.89-.67c1-.21,2-.36,3-.47a15.13,15.13,0,0,0,2.49-.45,4.2,4.2,0,0,0,1.7-.85,2.1,2.1,0,0,0,.63-1.64,3.77,3.77,0,0,0-.47-2,3.31,3.31,0,0,0-1.21-1.17,4.9,4.9,0,0,0-1.66-.54,12.28,12.28,0,0,0-1.82-.13,8.06,8.06,0,0,0-4,.92,3.88,3.88,0,0,0-1.75,3.47h-3.81a8.35,8.35,0,0,1,.89-3.63,6.91,6.91,0,0,1,2.16-2.4,8.83,8.83,0,0,1,3.07-1.32,15.89,15.89,0,0,1,3.7-.4,21.58,21.58,0,0,1,3.11.22,8.17,8.17,0,0,1,2.8.92,5.32,5.32,0,0,1,2,1.94,6.21,6.21,0,0,1,.76,3.27v11.9a8.4,8.4,0,0,0,.16,2c.1.41.45.62,1.05.62a4.6,4.6,0,0,0,1.17-.18Zm-6.19-11.88a4.59,4.59,0,0,1-1.88.78c-.78.17-1.59.3-2.44.4l-2.58.36a10,10,0,0,0-2.33.65,4.11,4.11,0,0,0-1.68,1.26,3.48,3.48,0,0,0-.65,2.25,3,3,0,0,0,1.36,2.63,4.1,4.1,0,0,0,1.42.58,8.11,8.11,0,0,0,1.7.18,9.11,9.11,0,0,0,3.23-.51,6.64,6.64,0,0,0,2.19-1.29,5.17,5.17,0,0,0,1.26-1.7,4.25,4.25,0,0,0,.4-1.72Z" transform="translate(0)" style="fill: #0091cf"/>
  <path d="M499.14,144.16v-3.68h-.09a7.73,7.73,0,0,1-3.1,3.16,9.2,9.2,0,0,1-4.43,1,10.28,10.28,0,0,1-3.81-.6,6.2,6.2,0,0,1-2.47-1.73,6.35,6.35,0,0,1-1.32-2.66,14.15,14.15,0,0,1-.38-3.43V121h3.81v15.65a4.35,4.35,0,0,0,4.7,4.67,7.67,7.67,0,0,0,3-.54,5.7,5.7,0,0,0,2.13-1.53,6.51,6.51,0,0,0,1.28-2.3,9.51,9.51,0,0,0,.42-2.9V121h3.82v23.17Z" transform="translate(0)" style="fill: #0091cf"/>
  <path d="M506.62,121h4.89l5.56,8.11,5.78-8.11h4.57l-8,10.66,9,12.51h-4.89l-6.45-9.59-6.46,9.59H506L514.7,132Z" transform="translate(0)" style="fill: #0091cf"/>
  <rect x="328.39" y="173.16" width="200.02" height="33.52" rx="3.02" style="fill: #b3b3b3"/>
  <path d="M349.84,192.77l2.1,1.12a6.8,6.8,0,1,1,0-7.07l-2.1,1.12a4.45,4.45,0,0,0-3.81-2.23,4.64,4.64,0,1,0,0,9.28A4.45,4.45,0,0,0,349.84,192.77Z" transform="translate(0)" style="fill: #282b2c"/>
  <path d="M367.5,191.2H356.31a4.46,4.46,0,0,0,4.38,3.79,5,5,0,0,0,4-2.1l2.07,1.13a7.25,7.25,0,0,1-6.1,3.12,6.76,6.76,0,1,1,6.81-5.94Zm-11.13-2H365c-.13-2.14-2.39-3.47-4.31-3.47a4.37,4.37,0,0,0-4.32,3.45Z" transform="translate(0)" style="fill: #282b2c"/>
  <path d="M380.7,183.64h2.39v13.08c0,4.26-3.45,6.48-6.84,6.48a6.83,6.83,0,0,1-5.92-3.26l2.1-1.12a4.46,4.46,0,0,0,3.82,2.23,4.32,4.32,0,0,0,4.45-4.19v-2a5.53,5.53,0,0,1-4.45,2.29,6.73,6.73,0,0,1-6.85-6.61v-.19a6.65,6.65,0,0,1,6.51-6.79h.34a5.3,5.3,0,0,1,4.45,2.31Zm0,6.7a4.45,4.45,0,1,0-4.44,4.65,4.52,4.52,0,0,0,4.44-4.6v0Z" transform="translate(0)" style="fill: #282b2c"/>
  <path d="M399.48,191.2h-11.2a4.46,4.46,0,0,0,4.38,3.79,5,5,0,0,0,4-2.1l2.08,1.13a7.28,7.28,0,0,1-6,3.12,6.79,6.79,0,1,1,6.87-6.71,6.49,6.49,0,0,1-.05.77Zm-11.14-2H397c-.14-2.14-2.39-3.47-4.32-3.47a4.38,4.38,0,0,0-4.32,3.45Z" transform="translate(0)" style="fill: #282b2c"/>
  <path d="M412.7,185.87V178.2h2.4v18.86h-2.4v-2.2a5.49,5.49,0,0,1-4.45,2.29,6.72,6.72,0,0,1-6.84-6.6v-.2a6.65,6.65,0,0,1,6.51-6.79h.33A5.27,5.27,0,0,1,412.7,185.87Zm0,4.48a4.45,4.45,0,1,0-4.44,4.65,4.51,4.51,0,0,0,4.44-4.58v-.07Z" transform="translate(0)" style="fill: #282b2c"/>
  <path d="M418.61,179.76a1.45,1.45,0,1,1,1.55,1.35h-.1A1.41,1.41,0,0,1,418.61,179.76Zm.25,3.89h2.39v13.41h-2.39Z" transform="translate(0)" style="fill: #282b2c"/>
  <path d="M445.09,188.64v8.47H442.7v-7.58c0-2.46-.91-3.63-2.88-3.63a3.55,3.55,0,0,0-3.58,3.17v8h-2.39v-7.58c0-2.52-.9-3.63-2.87-3.63a3.65,3.65,0,0,0-3.6,3.17v8H425V183.64h2.39v2.46a4.42,4.42,0,0,1,4.5-2.55,4.1,4.1,0,0,1,4,2.77,4.77,4.77,0,0,1,4.85-2.77C443.44,183.69,445.09,185.42,445.09,188.64Z" transform="translate(0)" style="fill: #282b2c"/>
  <path d="M458,187a4.12,4.12,0,0,0-3.41-1.72c-1.4,0-2.86.61-2.84,1.78s1.58,1.78,3.23,2.27c3.12.89,4.88,1.86,4.91,4.14s-2.65,3.52-5.34,3.56a7,7,0,0,1-5.69-2.8l1.56-1.07a5.15,5.15,0,0,0,4.16,2.07c1.34,0,2.94-.59,2.94-1.77s-1.56-1.68-3.48-2.29c-2.31-.74-4.67-1.92-4.66-4.13s2.33-3.6,5-3.6a6.09,6.09,0,0,1,5.14,2.43Z" transform="translate(0)" style="fill: #fff"/>
  <path d="M472.7,185.72V183.5h2.39v13.42H472.7v-2.21a5.49,5.49,0,0,1-4.46,2.3,6.72,6.72,0,0,1-6.84-6.6v-.2a6.65,6.65,0,0,1,6.51-6.79h.33A5.34,5.34,0,0,1,472.7,185.72Zm0,4.49a4.45,4.45,0,1,0-4.44,4.65,4.51,4.51,0,0,0,4.44-4.58Z" transform="translate(0)" style="fill: #fff"/>
  <path d="M490.59,189.1v7.82H488.2v-7.37c0-2.77-.89-3.92-3.12-3.92a4.09,4.09,0,0,0-4.06,3.23v8.06h-2.4V183.5H481v2.38c.67-1.39,2.75-2.55,5.07-2.46C488.93,183.55,490.59,185.64,490.59,189.1Z" transform="translate(0)" style="fill: #fff"/>
  <path d="M502.22,196.43a6.71,6.71,0,0,1-2.72.58c-2.53,0-4.39-1.4-4.39-4.26v-7.32h-2.19V183.5h2.19v-3.06l2.39-.44v3.5h4.05v1.93H497.5v7c0,1.86.78,2.55,2.24,2.62a4.31,4.31,0,0,0,2.32-.41Z" transform="translate(0)" style="fill: #fff"/>
  <path d="M517.1,191.06H505.9a4.46,4.46,0,0,0,4.38,3.79,5,5,0,0,0,4-2.1l2.08,1.13a7.31,7.31,0,0,1-6.11,3.12,6.79,6.79,0,1,1,6.87-6.71,6.49,6.49,0,0,1,0,.77Zm-11.14-2h8.64c-.14-2.14-2.4-3.47-4.32-3.47A4.38,4.38,0,0,0,506,189Z" transform="translate(0)" style="fill: #fff"/>
  <path d="M507.57,181.64c-.27-.44,0-.79.45-1l3.94-2.42c.69-.41,1.08-.27,1.32.14l.26.49c.34.63.16.93-.47,1.23L508.84,182c-.52.26-.88.3-1.1-.08Z" transform="translate(0)" style="fill: #fff"/>
  <rect y="189.61" width="317.87" height="1.5" style="fill: #b2b2b2"/>
</svg>
