<svg xmlns="http://www.w3.org/2000/svg" xmlns:xlink="http://www.w3.org/1999/xlink" width="144px" height="40px" viewBox="0 0 144 40"><title>logo</title><g id="Home" stroke="none" stroke-width="1" fill="none" fill-rule="evenodd"><g id="Desktop-HD" transform="translate(-32.000000, -32.000000)"><g id="logo" transform="translate(32.000000, 32.000000)"><g id="logo-md"><circle id="background" fill="#FFFFFF" cx="20" cy="20" r="20"></circle><path d="M20,0 C31.045695,0 40,8.954305 40,20 C40,31.045695 31.045695,40 20,40 C8.954305,40 0,31.045695 0,20 C0,8.954305 8.954305,0 20,0 Z M24.109589,24.109589 L15.8903425,24.1093425 L15.890411,29.3150685 L15.8954404,29.5201784 C16.0023162,31.6945529 17.7991143,33.4246575 20,33.4246575 C22.2008857,33.4246575 23.9976838,31.6945529 24.1045596,29.5201784 L24.1045596,29.5201784 L24.109589,29.3150685 L24.109589,24.109589 Z M29.3150685,15.890411 L24.109589,15.890411 L24.1093425,24.1093425 L29.3150685,24.109589 L29.5201784,24.1045596 C31.6945529,23.9976838 33.4246575,22.2008857 33.4246575,20 C33.4246575,17.7991143 31.6945529,16.0023162 29.5201784,15.8954404 L29.5201784,15.8954404 L29.3150685,15.890411 Z M15.8903425,15.8903425 L10.6849315,15.890411 L10.4798216,15.8954404 C8.30544706,16.0023162 6.57534247,17.7991143 6.57534247,20 C6.57534247,22.2696634 8.41526815,24.109589 10.6849315,24.109589 L10.6849315,24.109589 L15.890411,24.109589 L15.8903425,15.8903425 Z M20,6.57534247 C17.7303366,6.57534247 15.890411,8.41526815 15.890411,10.6849315 L15.890411,10.6849315 L15.890411,15.890411 L24.1093425,15.8903425 L24.109589,10.6849315 L24.1045596,10.4798216 C23.9976838,8.30544706 22.2008857,6.57534247 20,6.57534247 Z" id="logo-transparent" fill="#008CA4"></path></g><path d="M54.559628,30.7904814 C55.8178337,30.7904814 57.0281729,30.5579869 58.1906455,30.0929978 C59.3531182,29.6280088 60.3719912,28.9442013 61.2472648,28.0415755 C62.1225383,27.1389497 62.82686,26.0311816 63.3602298,24.7182713 C63.8935996,23.4053611 64.1602845,21.9146608 64.1602845,20.2461707 C64.1602845,18.5776805 63.8935996,17.0869803 63.3602298,15.77407 C62.82686,14.4611597 62.1225383,13.3533917 61.2472648,12.4507659 C60.3719912,11.54814 59.3531182,10.8574945 58.1906455,10.3788293 C57.0281729,9.90016411 55.8178337,9.66083151 54.559628,9.66083151 C53.3014223,9.66083151 52.0979212,9.90016411 50.9491247,10.3788293 C49.8003282,10.8574945 48.7814551,11.54814 47.8925055,12.4507659 C47.0035558,13.3533917 46.2992341,14.4611597 45.7795405,15.77407 C45.2598468,17.0869803 45,18.5776805 45,20.2461707 C45,21.9146608 45.2598468,23.4053611 45.7795405,24.7182713 C46.2992341,26.0311816 47.0035558,27.1389497 47.8925055,28.0415755 C48.7814551,28.9442013 49.8003282,29.6280088 50.9491247,30.0929978 C52.0979212,30.5579869 53.3014223,30.7904814 54.559628,30.7904814 Z M54.559628,26.9338074 C53.0826039,26.9338074 51.9269694,26.3252188 51.0927243,25.1080416 C50.2584792,23.8908643 49.8413567,22.2702407 49.8413567,20.2461707 C49.8413567,18.1947484 50.2584792,16.5604486 51.0927243,15.3432713 C51.9269694,14.1260941 53.0826039,13.5175055 54.559628,13.5175055 C56.0366521,13.5175055 57.1991247,14.1260941 58.047046,15.3432713 C58.8949672,16.5604486 59.3189278,18.1947484 59.3189278,20.2461707 C59.3189278,22.2702407 58.8949672,23.8908643 58.047046,25.1080416 C57.1991247,26.3252188 56.0366521,26.9338074 54.559628,26.9338074 Z M76.5354896,30.7904814 C77.6295815,30.7904814 78.6689688,30.5306346 79.6536515,30.0109409 C80.6383342,29.4912473 81.4999316,28.8621444 82.2384437,28.1236324 L82.2384437,28.1236324 L82.4025574,28.1236324 L82.730785,30.29814 L86.6284874,30.29814 L86.6284874,1.33205689 L81.9102161,1.33205689 L81.9102161,8.63512035 L82.0743299,11.8763676 C81.2811132,11.1925602 80.4878966,10.6523523 79.69468,10.255744 C78.9014633,9.85913567 77.9304568,9.66083151 76.7816603,9.66083151 C75.6875684,9.66083151 74.6276668,9.90700219 73.6019557,10.3993435 C72.5762445,10.8916849 71.6667806,11.5891685 70.873564,12.4917943 C70.0803474,13.3944201 69.4444065,14.5021882 68.9657412,15.8150985 C68.487076,17.1280088 68.2477434,18.6050328 68.2477434,20.2461707 C68.2477434,23.583151 68.9930935,26.1747812 70.4837938,28.0210613 C71.974494,29.8673414 73.9917259,30.7904814 76.5354896,30.7904814 Z M77.6842861,26.892779 C76.207262,26.892779 75.0789798,26.3252188 74.2994393,25.1900985 C73.5198988,24.0549781 73.1301286,22.393326 73.1301286,20.2051422 C73.1301286,18.071663 73.5814415,16.4305252 74.4840673,15.2817287 C75.3866931,14.1329322 76.4944612,13.5585339 77.8073714,13.5585339 C78.4911789,13.5585339 79.1681482,13.6816193 79.8382795,13.9277899 C80.5084108,14.1739606 81.1990563,14.6115974 81.9102161,15.2407002 L81.9102161,15.2407002 L81.9102161,24.6362144 C80.5973058,26.1405908 79.1886625,26.892779 77.6842861,26.892779 Z M98.1420952,30.7904814 C99.3455963,30.7904814 100.460202,30.5306346 101.485914,30.0109409 C102.511625,29.4912473 103.475793,28.8484683 104.378419,28.0826039 L104.378419,28.0826039 L104.542533,28.0826039 L104.87076,30.29814 L108.768463,30.29814 L108.768463,18.3588621 C108.768463,15.5415755 108.146198,13.3875821 106.901668,11.8968818 C105.657139,10.4061816 103.776668,9.66083151 101.260257,9.66083151 C99.6464716,9.66083151 98.1420952,9.92067834 96.747128,10.440372 C95.3521608,10.9600656 94.0939551,11.5754923 92.9725109,12.2866521 L92.9725109,12.2866521 L94.6957057,15.4458425 C95.5983315,14.8987965 96.5214716,14.4338074 97.4651258,14.0508753 C98.4087801,13.6679431 99.3729486,13.476477 100.357631,13.476477 C101.041439,13.476477 101.615837,13.5790481 102.080826,13.7841904 C102.545815,13.9893326 102.921909,14.2765317 103.209108,14.6457877 C103.496307,15.0150438 103.70145,15.4390044 103.824535,15.9176696 C103.94762,16.3963348 104.022839,16.8955142 104.050191,17.4152079 C101.971417,17.6340263 100.186679,17.9485777 98.6959792,18.3588621 C97.205279,18.7691466 95.9744256,19.2751641 95.003419,19.8769147 C94.0324125,20.4786652 93.3212527,21.196663 92.8699398,22.0309081 C92.4186269,22.8651532 92.1929705,23.8156455 92.1929705,24.8823851 C92.1929705,26.6602845 92.7400164,28.089442 93.8341083,29.1698578 C94.9282002,30.2502735 96.3641958,30.7904814 98.1420952,30.7904814 Z M99.6601477,27.0979212 C98.8122265,27.0979212 98.1147429,26.892779 97.5676969,26.4824945 C97.020651,26.0722101 96.747128,25.4157549 96.747128,24.5131291 C96.747128,24.0207877 96.8702133,23.5557987 97.116384,23.1181619 C97.3625547,22.6805252 97.7728392,22.2907549 98.3472374,21.9488512 C98.9216357,21.6069475 99.6738239,21.2992341 100.603802,21.0257112 C101.53378,20.7521882 102.682577,20.5333698 104.050191,20.369256 L104.050191,20.369256 L104.050191,24.8823851 C103.284327,25.5935449 102.566329,26.1405908 101.896198,26.523523 C101.226067,26.9064551 100.480717,27.0979212 99.6601477,27.0979212 Z M117.451108,6.62472648 C118.299029,6.62472648 118.996513,6.3785558 119.543559,5.88621444 C120.090604,5.39387309 120.364127,4.75109409 120.364127,3.95787746 C120.364127,3.16466083 120.090604,2.51504376 119.543559,2.00902626 C118.996513,1.50300875 118.299029,1.25 117.451108,1.25 C116.603187,1.25 115.905703,1.50300875 115.358657,2.00902626 C114.811611,2.51504376 114.538088,3.16466083 114.538088,3.95787746 C114.538088,4.75109409 114.811611,5.39387309 115.358657,5.88621444 C115.905703,6.3785558 116.603187,6.62472648 117.451108,6.62472648 Z M119.789729,30.29814 L119.789729,10.1531729 L115.071458,10.1531729 L115.071458,30.29814 L119.789729,30.29814 Z M128.882659,6.62472648 C129.73058,6.62472648 130.434902,6.3785558 130.995624,5.88621444 C131.556346,5.39387309 131.836707,4.75109409 131.836707,3.95787746 C131.836707,3.16466083 131.556346,2.51504376 130.995624,2.00902626 C130.434902,1.50300875 129.73058,1.25 128.882659,1.25 C128.06209,1.25 127.371444,1.50300875 126.810722,2.00902626 C126.25,2.51504376 125.969639,3.16466083 125.969639,3.95787746 C125.969639,4.75109409 126.25,5.39387309 126.810722,5.88621444 C127.371444,6.3785558 128.06209,6.62472648 128.882659,6.62472648 Z M124.861871,38.75 C126.03802,38.75 127.036379,38.565372 127.856947,38.196116 C128.677516,37.82686 129.34081,37.3071663 129.846827,36.637035 C130.352845,35.9669037 130.715263,35.1805252 130.934081,34.2778993 C131.152899,33.3752735 131.262309,32.3905908 131.262309,31.3238512 L131.262309,31.3238512 L131.262309,10.1531729 L126.503009,10.1531729 L126.503009,31.4059081 C126.503009,32.5820569 126.345733,33.4778446 126.031182,34.0932713 C125.71663,34.708698 125.108042,35.0164114 124.205416,35.0164114 C123.90454,35.0164114 123.610503,34.982221 123.323304,34.9138403 C123.036105,34.8454595 122.755744,34.7702407 122.482221,34.6881838 L122.482221,34.6881838 L121.579595,38.2166302 C121.962527,38.3533917 122.420678,38.476477 122.954048,38.5858862 C123.487418,38.6952954 124.123359,38.75 124.861871,38.75 Z M140.273181,6.62472648 C141.121102,6.62472648 141.818586,6.3785558 142.365632,5.88621444 C142.912678,5.39387309 143.186201,4.75109409 143.186201,3.95787746 C143.186201,3.16466083 142.912678,2.51504376 142.365632,2.00902626 C141.818586,1.50300875 141.121102,1.25 140.273181,1.25 C139.42526,1.25 138.727776,1.50300875 138.18073,2.00902626 C137.633684,2.51504376 137.360161,3.16466083 137.360161,3.95787746 C137.360161,4.75109409 137.633684,5.39387309 138.18073,5.88621444 C138.727776,6.3785558 139.42526,6.62472648 140.273181,6.62472648 Z M142.611803,30.29814 L142.611803,10.1531729 L137.893531,10.1531729 L137.893531,30.29814 L142.611803,30.29814 Z" id="odaiji" fill="#008CA4" fill-rule="nonzero"></path></g></g></g></svg>