<svg xmlns="http://www.w3.org/2000/svg" viewBox="0 0 65.91 80.03"><title>logo_prokov</title><g id="a0a8871e-2724-4819-8ae2-052262c98963" data-name="Calque 2"><g id="01cb4d77-a8ab-4061-9763-e6e6b7e6386b" data-name="Calque 1"><path d="M52.1,30.32a20.87,20.87,0,1,0-4.45,6.6A20.65,20.65,0,0,0,52.1,30.32Z" fill="#fff"/><path d="M33,0A22.24,22.24,0,1,0,55.19,22.24,22.24,22.24,0,0,0,33,0Zm0,43A20.78,20.78,0,0,1,24.87,3.1,20.77,20.77,0,0,1,47.64,36.93,20.7,20.7,0,0,1,33,43Z" fill="#d8d9d9"/><path d="M22.31,15.29h0c-3.73.85-4.14,1.65-4.24,2.21a1,1,0,0,0,.78,1.12,39.33,39.33,0,0,0,4.52-.18h0C22.9,17.19,22.56,16.12,22.31,15.29Z" fill="#e1027a"/><path d="M43.05,13a67,67,0,0,0-12.32.7A35.58,35.58,0,0,0,31,18.54a24.43,24.43,0,0,0,.48,2.66v.06h0a8.43,8.43,0,0,1,.57,2.1,21.72,21.72,0,0,1-.43,6.34c0,.36-.11.78-.19,1.21-.32,1.82-.75,4-.2,4.35s2.42-.85,3.1-1.37l.16-.12c.31-.25,1.13-1,1.69-1.56l.55-.53A51.25,51.25,0,0,0,47.34,17.26C47.72,16.19,49.48,13.31,43.05,13Z" fill="#e1027a"/><path d="M34.32,33.89c1.3,1.14,2.43,1.79,3.22,1.69.44-.06,0-1.22-.29-1.75-.09-.14-.5-.71-1.08-1.63-.56.53-1.38,1.31-1.69,1.56Z" fill="#121212"/><path d="M32,23.36c-.21-.68-.4-1.38-.57-2.1h0V21.2A24.43,24.43,0,0,1,31,18.54a35.58,35.58,0,0,1-.23-4.82c.09-3.18.73-4.08.29-4.78s-2-1.35-5.7.06a6.72,6.72,0,0,0-1,.48,4.52,4.52,0,0,0-2.1,5.42l.1.4h0c.24.83.58,1.91,1.08,3.16h0a35.75,35.75,0,0,0,4.58,8.13c1.16,1.55,2.34,3,3.47,4.34.07-.43.14-.84.19-1.21A21.72,21.72,0,0,0,32,23.36Z" fill="#121212"/><path d="M16.52,80H13.79A3.93,3.93,0,0,1,11,79a3.24,3.24,0,0,1-1-2.47V70.23h6.47v.71H12.4a1,1,0,0,0-.48.17.73.73,0,0,0-.26.37,2.12,2.12,0,0,0-.1.62c0,.25,0,.55,0,.91v1.44h3.53V75H11.55v2a2.54,2.54,0,0,0,.2,1.07,2,2,0,0,0,.52.69,1.81,1.81,0,0,0,.72.37,3.2,3.2,0,0,0,.8.1h2.73ZM16,68.19q-.08.08-3,1.07l-.21-.4L15.31,67A7.59,7.59,0,0,1,16,68.19Z" fill="#ec87b1"/><path d="M23.83,78a2.52,2.52,0,0,1-1.62,1.66,4.48,4.48,0,0,1-1.52.23,4,4,0,0,1-1.45-.23,2.48,2.48,0,0,1-1-.65,2.69,2.69,0,0,1-.58-1,4.82,4.82,0,0,1-.22-1.34,5,5,0,0,1,.22-1.36,2.83,2.83,0,0,1,.58-1,2.6,2.6,0,0,1,1-.67,3.92,3.92,0,0,1,1.45-.24,3.53,3.53,0,0,1,1,.14,5.59,5.59,0,0,1,.82.32l0-3.62H24V76.7A4.83,4.83,0,0,1,23.83,78Zm-1.4-2.66a1.92,1.92,0,0,0-.37-.72,1.35,1.35,0,0,0-.57-.4,1.94,1.94,0,0,0-.74-.11,2,2,0,0,0-.74.1,1.35,1.35,0,0,0-.58.39,1.91,1.91,0,0,0-.37.73,4,4,0,0,0-.13,1.1v.45A3.91,3.91,0,0,0,19.07,78a1.69,1.69,0,0,0,.37.7,1.34,1.34,0,0,0,.58.36,2.32,2.32,0,0,0,.74.09,2.18,2.18,0,0,0,.74-.1,1.35,1.35,0,0,0,.57-.37,1.78,1.78,0,0,0,.37-.69,3.86,3.86,0,0,0,.13-1.08v-.45A4,4,0,0,0,22.43,75.39Z" fill="#ec87b1"/><path d="M25.44,70.53a.91.91,0,0,1,.68-.28,1,1,0,0,1,1,1,.84.84,0,0,1-.08.37,1.1,1.1,0,0,1-.23.31,1.06,1.06,0,0,1-.32.21.83.83,0,0,1-.34.08.92.92,0,0,1-.68-.28,1,1,0,0,1,0-1.37Zm1.46,9.39H25.4v-6.5h1.49Z" fill="#ec87b1"/><path d="M32,74.19h-1.5v5.76H29.11V74.19H27.59v-.75h1.51V70.23h1.44v3.21H32Z" fill="#ec87b1"/><path d="M33.08,70.53a.91.91,0,0,1,.68-.28,1,1,0,0,1,1,1,.81.81,0,0,1-.09.37,1.09,1.09,0,0,1-.54.52.82.82,0,0,1-.34.08.92.92,0,0,1-.68-.28,1,1,0,0,1,0-1.37Zm1.46,9.39H33.05v-6.5h1.49Z" fill="#ec87b1"/><path d="M40.64,73.75a2.76,2.76,0,0,1,1,.72,3,3,0,0,1,.58,1,4.45,4.45,0,0,1,.22,1.22A4.71,4.71,0,0,1,42.22,78a2.74,2.74,0,0,1-.57,1,2.79,2.79,0,0,1-1,.69,3.65,3.65,0,0,1-1.46.26,4,4,0,0,1-1.52-.26,2.77,2.77,0,0,1-1-.7,2.88,2.88,0,0,1-.6-1,4.4,4.4,0,0,1-.22-1.23A4.06,4.06,0,0,1,36,75.5a2.81,2.81,0,0,1,.59-1,2.85,2.85,0,0,1,1-.72,3.84,3.84,0,0,1,1.53-.27A3.45,3.45,0,0,1,40.64,73.75ZM37.45,78a1.74,1.74,0,0,0,.37.69,1.36,1.36,0,0,0,.57.37,2.18,2.18,0,0,0,.74.1,2.32,2.32,0,0,0,.74-.09,1.32,1.32,0,0,0,.58-.36,1.69,1.69,0,0,0,.37-.7,3.92,3.92,0,0,0,.13-1.09v-.45a3.94,3.94,0,0,0-.13-1.09,1.73,1.73,0,0,0-.37-.7,1.29,1.29,0,0,0-.58-.36,2.26,2.26,0,0,0-.74-.09,2.19,2.19,0,0,0-.74.1,1.34,1.34,0,0,0-.57.37,1.71,1.71,0,0,0-.37.69,3.88,3.88,0,0,0-.13,1.08v.45A3.86,3.86,0,0,0,37.45,78Z" fill="#ec87b1"/><path d="M48.37,75.44a1.74,1.74,0,0,0-.31-.69,1.16,1.16,0,0,0-.52-.37,2,2,0,0,0-.71-.1,2.27,2.27,0,0,0-.74.09,1.28,1.28,0,0,0-.57.36,1.73,1.73,0,0,0-.37.7A4,4,0,0,0,45,76.52v3.4H43.53v-3a3.56,3.56,0,0,1,.83-2.49,3.09,3.09,0,0,1,2.4-.91,4,4,0,0,1,1.47.24,2.47,2.47,0,0,1,1,.68,2.73,2.73,0,0,1,.56,1.07A5.3,5.3,0,0,1,50,76.92v3H48.47v-3.4A4.78,4.78,0,0,0,48.37,75.44Z" fill="#ec87b1"/><path d="M53.46,79.29a1.58,1.58,0,0,0,.47-.2,1.08,1.08,0,0,0,.32-.33.86.86,0,0,0,.12-.45.71.71,0,0,0-.12-.41,1.28,1.28,0,0,0-.32-.31,2.42,2.42,0,0,0-.46-.24l-.54-.21q-.38-.13-.74-.28a3,3,0,0,1-.65-.38,1.81,1.81,0,0,1-.47-.56,1.69,1.69,0,0,1-.18-.81,1.39,1.39,0,0,1,.19-.73,1.73,1.73,0,0,1,.52-.55,2.43,2.43,0,0,1,.76-.34,3.36,3.36,0,0,1,.89-.12c.24,0,.46,0,.65,0a3,3,0,0,1,.53.09,2.49,2.49,0,0,1,.47.17l.48.27a2.53,2.53,0,0,1,0,.45c0,.13,0,.25,0,.38l-.33-.23a2.93,2.93,0,0,0-.41-.22,3.12,3.12,0,0,0-.54-.17,5.58,5.58,0,0,0-.74-.11,2.06,2.06,0,0,0-.49.06,1.49,1.49,0,0,0-.42.17,1,1,0,0,0-.3.27.64.64,0,0,0-.12.38.67.67,0,0,0,.12.4,1.33,1.33,0,0,0,.33.31,2.68,2.68,0,0,0,.47.25l.55.23.72.3a3,3,0,0,1,.65.39,1.85,1.85,0,0,1,.47.54,1.56,1.56,0,0,1,.18.77,1.64,1.64,0,0,1-.23.88,1.9,1.9,0,0,1-.59.6,2.55,2.55,0,0,1-.81.34A3.7,3.7,0,0,1,53,80c-.33,0-.66,0-1-.08a6.59,6.59,0,0,1-1-.22l-.12-.88a2.65,2.65,0,0,0,.94.44,4.2,4.2,0,0,0,1.08.08A2.07,2.07,0,0,0,53.46,79.29Z" fill="#ec87b1"/><path d="M0,55H7.53a3.83,3.83,0,0,1,.85.22,4.19,4.19,0,0,1,.87.47,3.27,3.27,0,0,1,.43.34,4.7,4.7,0,0,1,.45.49,2.93,2.93,0,0,1,.61,1.28,7.49,7.49,0,0,1,.13,1.45A3.29,3.29,0,0,1,10.13,61a5.28,5.28,0,0,1-.46.47,5.54,5.54,0,0,1-.6.47,3.12,3.12,0,0,1-.54.29l-.39.14a2.13,2.13,0,0,1-.67.11H3.79c-.15,0-.36-.1-.36-.5V60.44c0-.43.17-.5.33-.5H5.92a1.86,1.86,0,0,0,.33,0,1,1,0,0,0,.3-.11,1.29,1.29,0,0,0,.34-.2,1.52,1.52,0,0,0,.35-.32.9.9,0,0,0,.18-.3l0-.13q0-.12,0-.22a1,1,0,0,0-.06-.27,1,1,0,0,0-.17-.27,1.07,1.07,0,0,0-.27-.23,1.6,1.6,0,0,0-.38-.18A1.75,1.75,0,0,0,6,57.6H3.23a.13.13,0,0,0-.12.09.42.42,0,0,0,0,.18v7.38a.46.46,0,0,1,0,.17.91.91,0,0,1-.16.23,1,1,0,0,1-.2.17.48.48,0,0,1-.22,0H.34s-.34,0-.34-.43Z" fill="#fff"/><path d="M11.57,65.35v-6a7.07,7.07,0,0,1,.19-1.59,4.42,4.42,0,0,1,.64-1.51A3.33,3.33,0,0,1,15.17,55H18.7a.36.36,0,0,1,.37.37v1.7c0,.24-.06.68-.33.68H16a1.63,1.63,0,0,0-.94.4,1.33,1.33,0,0,0-.44,1v6.25a.44.44,0,0,1-.46.49H11.93C11.53,65.86,11.57,65.35,11.57,65.35Z" fill="#fff"/><path d="M29.8,62.39a5.39,5.39,0,0,1-1,1.68v0a4.81,4.81,0,0,1-1.41,1.3,3.65,3.65,0,0,1-1.94.51H23.65a3.57,3.57,0,0,1-1.92-.51A6.2,6.2,0,0,1,20.23,64,5.57,5.57,0,0,1,19,60.51v-.2a6.13,6.13,0,0,1,.32-1.92,5.62,5.62,0,0,1,.92-1.72,4.79,4.79,0,0,1,1.46-1.23A3.92,3.92,0,0,1,23.65,55h1.84a3.92,3.92,0,0,1,1.92.47,4.75,4.75,0,0,1,1.46,1.23,5.57,5.57,0,0,1,.92,1.72,6.13,6.13,0,0,1,.32,1.92v.2A5.74,5.74,0,0,1,29.8,62.39Zm-6.05-4.82-.29.08-.27.09-.27.12h0a1.58,1.58,0,0,0-.4.33,3.13,3.13,0,0,0-.36.5,2.84,2.84,0,0,0-.26.6,2.11,2.11,0,0,0-.1.62v.78a3.81,3.81,0,0,0,.06.64,1.47,1.47,0,0,0,.18.52,3.43,3.43,0,0,0,.47.68,4.39,4.39,0,0,0,.43.42l0,0a1.64,1.64,0,0,0,.38.17l.37.09.29,0H25l.41,0a2.06,2.06,0,0,0,.72-.27,2.14,2.14,0,0,0,.77-.82,2.53,2.53,0,0,0,.35-1.22l0-.19v-.62a3.12,3.12,0,0,0-.17-1,2.36,2.36,0,0,0-.49-.86,1.29,1.29,0,0,0-.36-.28,3.14,3.14,0,0,0-.37-.17l-.27-.1-.18-.06a2,2,0,0,0-.44-.07h-.85A2.19,2.19,0,0,0,23.75,57.57Z" fill="#fff"/><path d="M31.77,55h2a1.07,1.07,0,0,1,.35.08.65.65,0,0,1,.18.13.58.58,0,0,1,.12.22.86.86,0,0,1,0,.23v3.76l3.76-4.11a1,1,0,0,1,.63-.28h2.54a.51.51,0,0,1,.36.11.45.45,0,0,1,.07.26.61.61,0,0,1-.18.39l-4.15,4.64s4.2,4.76,4.24,4.82a.72.72,0,0,1,.07.22.4.4,0,0,1,0,.12.4.4,0,0,1-.09.24c-.05.07-.2.07-.33.07H38.85a1.12,1.12,0,0,1-.67-.26l-3.74-4.31v3.88a.87.87,0,0,1,0,.19,1.38,1.38,0,0,1-.09.24v0s0,0,0,0a1.93,1.93,0,0,1-.22.23h-2.2a.5.5,0,0,1-.39-.19.6.6,0,0,1-.17-.39V55.44A.43.43,0,0,1,31.77,55Z" fill="#fff"/><path d="M52.79,62.39a5.4,5.4,0,0,1-1,1.68v0a4.82,4.82,0,0,1-1.41,1.3,3.65,3.65,0,0,1-1.94.51H46.63a3.58,3.58,0,0,1-1.93-.51A6.24,6.24,0,0,1,43.21,64,5.57,5.57,0,0,1,42,60.51v-.2a6.13,6.13,0,0,1,.32-1.92,5.56,5.56,0,0,1,.92-1.72,4.81,4.81,0,0,1,1.46-1.23A3.94,3.94,0,0,1,46.63,55h1.84a3.92,3.92,0,0,1,1.92.47,4.79,4.79,0,0,1,1.46,1.23,5.62,5.62,0,0,1,.92,1.72,6.13,6.13,0,0,1,.31,1.92v.2A5.74,5.74,0,0,1,52.79,62.39Zm-6-4.81-.27.06-.26.09-.33.13h0a1.53,1.53,0,0,0-.4.33,3.11,3.11,0,0,0-.36.5,2.7,2.7,0,0,0-.26.6,2,2,0,0,0-.1.62v.78a3.81,3.81,0,0,0,.06.64,1.41,1.41,0,0,0,.18.52,3.2,3.2,0,0,0,.47.68,4.37,4.37,0,0,0,.43.42l0,0a1.64,1.64,0,0,0,.38.17l.37.09.3,0H48l.41,0a2,2,0,0,0,.72-.27,2.14,2.14,0,0,0,.77-.82,2.53,2.53,0,0,0,.35-1.22l0-.19v-.62a3.18,3.18,0,0,0-.17-1,2.36,2.36,0,0,0-.5-.86,1.23,1.23,0,0,0-.43-.3l-.39-.15-.07,0-.05,0-.2-.09-.17-.05h0l-.15,0-.18,0h-.85Z" fill="#fff"/><path d="M52.69,55.81c-.17-.41-.16-.56-.1-.65S53,55,53.1,55h2.23a.76.76,0,0,1,.54.18,1.07,1.07,0,0,1,.28.45s.46,1.14,1.38,3.33l1,2.42c.23.55.36.88.42,1a.58.58,0,0,0,.18.22.7.7,0,0,0,.11-.25c0-.08.17-.4.43-1s.62-1.39,1.11-2.49q.37-.88.59-1.38l.35-.83.25-.6.28-.68s.14-.42.45-.42h2.58a1.23,1.23,0,0,1,.5.07s.21.09.14.25-.19.39-.28.62c-.16.38-2.43,5.52-3.18,7.09s-1,2-1.17,2.39c0,0-.16.45-.33.45H57.07a.31.31,0,0,1-.24-.1l0-.07,0-.07-4-9.77Z" fill="#fff"/></g></g></svg>